<svg width="25" height="17" viewBox="0 0 25 17" fill="none" xmlns="http://www.w3.org/2000/svg">
<g id="Group">
<path id="Vector" d="M22.5 0.5H2.5C1.39543 0.5 0.5 1.39543 0.5 2.5V14.5C0.5 15.6046 1.39543 16.5 2.5 16.5H22.5C23.6046 16.5 24.5 15.6046 24.5 14.5V2.5C24.5 1.39543 23.6046 0.5 22.5 0.5Z" fill="#016FD0" style="fill:#016FD0;fill:color(display-p3 0.0039 0.4353 0.8157);fill-opacity:1;"/>
<path id="Vector_2" fill-rule="evenodd" clip-rule="evenodd" d="M14.2642 13.8938V8.19238L24.4117 8.20149V9.77638L23.2388 11.0298L24.4117 12.2947V13.903H22.5391L21.5439 12.8048L20.5558 13.9071L14.2642 13.8938Z" fill="#FFFFFE" style="fill:#FFFFFE;fill:color(display-p3 1.0000 1.0000 0.9961);fill-opacity:1;"/>
<path id="Vector_3" fill-rule="evenodd" clip-rule="evenodd" d="M14.9419 13.2687V8.81982H18.7142V9.84471H16.1633V10.5404H18.6534V11.5482H16.1633V12.2315H18.7142V13.2687H14.9419Z" fill="#016FD0" style="fill:#016FD0;fill:color(display-p3 0.0039 0.4353 0.8157);fill-opacity:1;"/>
<path id="Vector_4" fill-rule="evenodd" clip-rule="evenodd" d="M18.6952 13.2686L20.7825 11.0416L18.6951 8.81982H20.3107L21.5862 10.2299L22.8653 8.81982H24.4115V8.85483L22.3686 11.0416L24.4115 13.2055V13.2686H22.8498L21.5516 11.8444L20.2669 13.2686H18.6952Z" fill="#016FD0" style="fill:#016FD0;fill:color(display-p3 0.0039 0.4353 0.8157);fill-opacity:1;"/>
<path id="Vector_5" fill-rule="evenodd" clip-rule="evenodd" d="M14.7374 3.13184H17.1834L18.0426 5.08269V3.13184H21.0624L21.5832 4.59341L22.1057 3.13184H24.4116V8.83323H12.2251L14.7374 3.13184Z" fill="#FFFFFE" style="fill:#FFFFFE;fill:color(display-p3 1.0000 1.0000 0.9961);fill-opacity:1;"/>
<g id="Group_2">
<path id="Vector_6" fill-rule="evenodd" clip-rule="evenodd" d="M15.2006 3.75098L13.2266 8.19615H14.5805L14.9529 7.30598H16.9708L17.343 8.19615H18.7306L16.7648 3.75098H15.2006ZM15.3702 6.30841L15.9622 4.89334L16.5538 6.30841H15.3702Z" fill="#016FD0" style="fill:#016FD0;fill:color(display-p3 0.0039 0.4353 0.8157);fill-opacity:1;"/>
<path id="Vector_7" fill-rule="evenodd" clip-rule="evenodd" d="M18.7122 8.19557V3.75049L20.6153 3.75703L21.5945 6.48976L22.5802 3.75049H24.4118V8.19557L23.2332 8.206V5.15265L22.1206 8.19557H21.0448L19.9092 5.14222V8.19557H18.7122Z" fill="#016FD0" style="fill:#016FD0;fill:color(display-p3 0.0039 0.4353 0.8157);fill-opacity:1;"/>
</g>
</g>
</svg>
