<?xml version="1.0" standalone="no"?>
<!DOCTYPE svg PUBLIC "-//W3C//DTD SVG 20010904//EN"
 "http://www.w3.org/TR/2001/REC-SVG-20010904/DTD/svg10.dtd">
<svg version="1.0" xmlns="http://www.w3.org/2000/svg"
 width="40.000000pt" height="41.000000pt" viewBox="0 0 40.000000 41.000000"
 preserveAspectRatio="xMidYMid meet">

<g transform="translate(0.000000,41.000000) scale(0.100000,-0.100000)"
fill="#000000" stroke="none">
<path d="M112 379 c-83 -42 -127 -140 -100 -228 7 -25 19 -46 27 -49 10 -3 11
1 5 19 -5 13 -9 53 -9 89 0 71 18 106 73 142 59 39 172 30 172 -14 0 -17 4
-19 27 -13 34 8 32 5 26 38 -5 25 -23 39 -23 17 0 -6 -15 -4 -36 5 -51 21
-111 19 -162 -6z"/>
<path d="M354 288 c28 -92 14 -159 -44 -212 -45 -40 -108 -55 -163 -37 -29 10
-34 16 -29 33 4 17 2 20 -12 15 -10 -4 -24 -7 -32 -7 -16 0 -18 -28 -3 -50 7
-11 12 -11 15 -3 4 8 14 8 39 -3 127 -53 265 40 265 177 0 59 -15 109 -33 109
-5 0 -6 -10 -3 -22z"/>
<path d="M250 258 c0 -2 -9 -27 -20 -56 -13 -33 -16 -52 -9 -50 6 2 20 26 30
53 22 59 22 55 9 55 -5 0 -10 -1 -10 -2z"/>
<path d="M70 230 c0 -5 7 -10 15 -10 8 0 15 -4 15 -9 0 -5 -7 -14 -15 -21 -23
-19 -18 -30 15 -30 17 0 30 5 30 10 0 6 -7 10 -17 10 -15 0 -15 2 1 19 10 11
15 25 11 30 -8 14 -55 14 -55 1z"/>
<path d="M156 218 c-21 -29 -20 -38 3 -38 11 0 22 -6 24 -12 4 -10 8 -9 16 2
14 20 8 35 -12 34 -13 -1 -14 2 -6 17 14 27 -6 24 -25 -3z"/>
<path d="M270 224 c0 -11 5 -14 16 -10 13 5 14 1 9 -24 -9 -40 10 -39 24 1 16
46 14 49 -19 49 -21 0 -30 -5 -30 -16z"/>
</g>
</svg>
