<?xml version="1.0" standalone="no"?>
<!DOCTYPE svg PUBLIC "-//W3C//DTD SVG 20010904//EN"
 "http://www.w3.org/TR/2001/REC-SVG-20010904/DTD/svg10.dtd">
<svg version="1.0" xmlns="http://www.w3.org/2000/svg"
 width="81.000000pt" height="80.000000pt" viewBox="0 0 81.000000 80.000000"
 preserveAspectRatio="xMidYMid meet">

<g transform="translate(0.000000,80.000000) scale(0.100000,-0.100000)"
fill="#000000" stroke="none">
<path d="M342 778 c-69 -15 -47 -33 36 -30 81 4 139 -17 183 -65 l24 -26 -25
8 c-14 4 -47 12 -75 19 -27 6 -61 19 -74 28 -25 18 -45 15 -38 -5 2 -7 -12
-16 -30 -22 -59 -17 -33 -30 53 -26 53 2 84 -1 88 -8 4 -6 1 -14 -8 -17 -17
-7 -28 -31 -17 -38 4 -3 23 5 41 19 31 23 33 23 66 7 40 -19 41 -22 12 -49
-85 -78 -194 -77 -307 0 -29 21 -60 37 -67 37 -12 0 -12 5 1 30 16 30 12 56
-6 44 -5 -3 -18 -23 -29 -45 l-21 -39 45 -19 c24 -11 63 -33 85 -49 98 -71
233 -63 323 21 l27 25 22 -24 c23 -25 49 -32 49 -14 0 5 -16 27 -35 49 -19 21
-35 43 -35 49 0 5 -20 32 -45 60 -64 71 -153 100 -243 80z"/>
<path d="M246 733 c-11 -11 -6 -23 9 -23 8 0 15 4 15 9 0 13 -16 22 -24 14z"/>
<path d="M80 488 c-7 -24 -20 -54 -29 -68 -31 -46 -41 -81 -41 -143 0 -113 65
-206 169 -242 76 -26 165 -16 146 16 -5 7 -9 60 -9 118 -1 88 -5 113 -23 148
-28 52 -84 99 -144 120 -45 16 -46 18 -38 47 12 41 11 46 -4 46 -8 0 -20 -19
-27 -42z m90 -93 c42 -22 80 -63 100 -108 16 -35 19 -63 17 -141 l-2 -98 -47
5 c-118 14 -197 106 -198 227 0 57 14 99 24 70 17 -56 29 -111 31 -145 2 -33
6 -40 23 -38 11 1 28 -7 37 -17 17 -19 45 -27 45 -14 0 3 -13 23 -29 43 -31
39 -61 94 -61 110 0 7 9 7 26 0 15 -5 29 -7 32 -5 11 12 -9 35 -36 41 -24 5
-31 12 -35 38 -8 60 6 66 73 32z"/>
<path d="M704 446 c-3 -9 -35 -30 -71 -47 -124 -59 -178 -146 -171 -276 l3
-67 -32 -8 c-18 -5 -33 -13 -33 -18 0 -18 200 0 252 22 54 23 110 80 133 134
25 60 20 151 -12 215 -28 54 -58 74 -69 45z m46 -66 c42 -82 16 -212 -54 -265
-33 -25 -97 -55 -117 -55 -6 0 18 29 55 65 36 36 73 65 81 65 8 0 15 7 15 15
0 8 -7 15 -16 15 -11 0 -14 5 -10 16 3 9 9 27 12 40 10 40 -20 29 -35 -13 -16
-46 -58 -113 -70 -113 -5 0 -11 10 -13 22 -2 12 -9 23 -16 26 -11 3 -13 -7
-10 -42 3 -43 1 -48 -29 -67 l-33 -21 -10 27 c-23 61 -4 145 46 204 19 22 60
51 97 69 36 17 68 35 72 41 10 17 13 14 35 -29z"/>
</g>
</svg>
