<svg width="8" height="9" viewBox="0 0 8 9" fill="none" xmlns="http://www.w3.org/2000/svg">
<g id="svg739991091_1180" clip-path="url(#clip0_23_1821)">
<path id="Vector" d="M3.05583 7.39424C2.99327 7.39424 2.93794 7.3786 2.88982 7.34733C2.84171 7.31605 2.80682 7.27275 2.78517 7.21741C2.76351 7.16208 2.7587 7.10554 2.77073 7.0478C2.78276 6.99006 2.80802 6.94194 2.84652 6.90345L5.08397 4.6588L2.84652 2.42135C2.81765 2.39248 2.79599 2.36 2.78156 2.32392C2.76712 2.28783 2.75991 2.25054 2.75991 2.21204C2.75991 2.17355 2.76712 2.13746 2.78156 2.10378C2.79599 2.0701 2.81765 2.03882 2.84652 2.00995C2.87539 1.98108 2.90787 1.95943 2.94395 1.94499C2.98004 1.93056 3.01372 1.92334 3.045 1.92334C3.07628 1.92334 3.11597 1.93296 3.16409 1.95221C3.19777 1.96665 3.22905 1.9883 3.25792 2.01717L5.69746 4.45671C5.7552 4.51445 5.78407 4.58302 5.78407 4.66241C5.78407 4.7418 5.7552 4.81035 5.69746 4.86809L3.25792 7.30763C3.20018 7.36537 3.13281 7.39424 3.05583 7.39424ZM5.49537 4.94748H0.298713C0.216914 4.94748 0.148347 4.91982 0.0930119 4.86448C0.0376771 4.80915 0.0100098 4.7418 0.0100098 4.66241C0.0100098 4.58302 0.0388801 4.51445 0.0966207 4.45671C0.154361 4.39897 0.221725 4.3701 0.298713 4.3701H5.49537C5.57235 4.3701 5.63972 4.39897 5.69746 4.45671C5.7552 4.51445 5.78407 4.58302 5.78407 4.66241C5.78407 4.7418 5.7564 4.80915 5.70107 4.86448C5.64573 4.91982 5.57717 4.94748 5.49537 4.94748Z" fill="#0E0E0E" style="fill:#0E0E0E;fill:color(display-p3 0.0549 0.0549 0.0549);fill-opacity:1;"/>
</g>
<defs>
<clipPath id="clip0_23_1821">
<rect width="7.21758" height="7.61855" fill="white" style="fill:white;fill-opacity:1;" transform="translate(0.00976562 0.739746)"/>
</clipPath>
</defs>
</svg>
