<svg width="25" height="17" viewBox="0 0 25 17" fill="none" xmlns="http://www.w3.org/2000/svg">
<g id="319">
<g id="New Icons">
<g id="Card Brands">
<g id="Color">
<g id="Discover">
<path id="shape" d="M22.4972 16.2499L22.4994 16.2499C23.4545 16.2581 24.2381 15.4773 24.25 14.5042L24.25 2.5063C24.2462 2.03569 24.0589 1.58617 23.7297 1.2568C23.4014 0.928269 22.9589 0.746149 22.4972 0.750071L2.50064 0.750062C2.04109 0.746149 1.59858 0.928269 1.27028 1.2568C0.941145 1.58617 0.753838 2.03569 0.750008 2.50426L0.75 14.4937C0.753838 14.9643 0.941145 15.4138 1.27028 15.7432C1.59858 16.0717 2.04109 16.2538 2.50277 16.2499H22.4972ZM22.4962 16.7499C22.4958 16.7499 22.4955 16.7499 22.4951 16.7499L22.4972 16.7499H22.4962Z" fill="white" stroke="black" stroke-opacity="0.2" style="fill:white;fill-opacity:1;stroke:black;stroke-opacity:0.2;" stroke-width="0.5"/>
<path id="shape_2" d="M13.1123 16.5002H22.4971C23.0239 16.5046 23.5309 16.2995 23.9065 15.9301C24.2821 15.5607 24.4955 15.0573 24.4999 14.5305V12.1719C20.9561 14.2062 17.1127 15.667 13.1123 16.5002Z" fill="#F27712" style="fill:#F27712;fill:color(display-p3 0.9490 0.4667 0.0706);fill-opacity:1;"/>
<path id="shape_3" d="M23.6725 9.79643H22.82L21.8601 8.53023H21.769V9.79643H21.0738V6.65161H22.1C22.9028 6.65161 23.3663 6.98264 23.3663 7.5785C23.3663 8.06678 23.0766 8.38126 22.5552 8.48057L23.6725 9.79643ZM22.6463 7.60333C22.6463 7.29712 22.4145 7.13988 21.9842 7.13988H21.769V8.09161H21.9676C22.4145 8.09161 22.6463 7.92609 22.6463 7.60333ZM18.6407 6.65161H20.6104V7.18126H19.3359V7.88471H20.5607V8.42264H19.3359V9.27505H20.6104V9.80471H18.6407V6.65161ZM16.4063 9.87919L14.9001 6.64333H15.6614L16.6132 8.76195L17.5732 6.64333H18.318L16.7952 9.87919H16.4228H16.4063ZM10.1083 9.87092C9.04902 9.87092 8.22143 9.15092 8.22143 8.21574C8.22143 7.3054 9.06557 6.56885 10.1249 6.56885C10.4228 6.56885 10.6711 6.62678 10.9773 6.75919V7.48747C10.7454 7.25965 10.4334 7.13187 10.1083 7.13161C9.44626 7.13161 8.94143 7.61161 8.94143 8.21574C8.94143 8.85299 9.43798 9.30816 10.1414 9.30816C10.4559 9.30816 10.6959 9.20885 10.9773 8.96057V9.68885C10.6628 9.82126 10.398 9.87092 10.1083 9.87092ZM8.00626 8.83643C8.00626 9.44885 7.50143 9.87092 6.77315 9.87092C6.2435 9.87092 5.86281 9.68885 5.54005 9.27505L5.99522 8.88609C6.15246 9.16747 6.41729 9.30816 6.74833 9.30816C7.06281 9.30816 7.28626 9.11781 7.28626 8.86954C7.28626 8.72885 7.22005 8.62126 7.07936 8.5385C6.9251 8.46365 6.76446 8.40271 6.59936 8.35643C5.94557 8.14954 5.72212 7.92609 5.72212 7.48747C5.72212 6.97436 6.20212 6.5854 6.83109 6.5854C7.22833 6.5854 7.58419 6.70954 7.88212 6.94126L7.51798 7.35505C7.37366 7.19683 7.16938 7.10671 6.95522 7.10678C6.65729 7.10678 6.44212 7.25574 6.44212 7.45436C6.44212 7.61988 6.56626 7.71092 6.98005 7.85161C7.77453 8.09988 8.00626 8.33161 8.00626 8.84471V8.83643ZM4.58833 6.65161H5.2835V9.80471H4.58833V6.65161ZM2.35384 9.80471H1.32764V6.65161H2.35384C3.47936 6.65161 4.25729 7.29712 4.25729 8.22402C4.25729 8.69574 4.02557 9.14264 3.62005 9.44057C3.27246 9.68885 2.8835 9.80471 2.34557 9.80471H2.35384ZM3.16488 7.43781C2.93315 7.25574 2.66833 7.18954 2.21315 7.18954H2.02281V9.27505H2.21315C2.66005 9.27505 2.94143 9.1923 3.16488 9.02678C3.40488 8.82816 3.54557 8.53023 3.54557 8.22402C3.54557 7.91781 3.40488 7.62816 3.16488 7.43781Z" fill="black" style="fill:black;fill-opacity:1;"/>
<path id="shape_4" d="M12.9137 6.56885C12.0034 6.56885 11.2585 7.29712 11.2585 8.19919C11.2585 9.15919 11.9703 9.87919 12.9137 9.87919C13.8406 9.87919 14.5689 9.15092 14.5689 8.22402C14.5689 7.29712 13.8489 6.56885 12.9137 6.56885Z" fill="#F27712" style="fill:#F27712;fill:color(display-p3 0.9490 0.4667 0.0706);fill-opacity:1;"/>
</g>
</g>
</g>
</g>
</g>
</svg>
