<svg width="40" height="40" viewBox="0 0 40 40" fill="none" xmlns="http://www.w3.org/2000/svg">
<g id="1">
<rect id="BG" width="39.398" height="39.398" rx="19.699" fill="#9A5CF5" style="fill:#9A5CF5;fill:color(display-p3 0.6039 0.3608 0.9608);fill-opacity:1;"/>
<g id="discord 1">
<g id="Group">
<path id="Vector" d="M18.4834 19.7103C18.2484 19.7296 18.0293 19.8366 17.8695 20.0101C17.7098 20.1835 17.6211 20.4107 17.6211 20.6464C17.6211 20.8822 17.7098 21.1094 17.8695 21.2828C18.0293 21.4562 18.2484 21.5632 18.4834 21.5826C18.6016 21.5782 18.7179 21.5505 18.8253 21.501C18.9328 21.4515 19.0295 21.3813 19.1096 21.2942C19.1898 21.2072 19.2519 21.1051 19.2925 20.9939C19.333 20.8828 19.3511 20.7647 19.3457 20.6464C19.3515 20.5281 19.3337 20.4098 19.2934 20.2985C19.253 20.1871 19.1909 20.0849 19.1106 19.9978C19.0304 19.9106 18.9336 19.8404 18.8259 19.791C18.7182 19.7417 18.6018 19.7142 18.4834 19.7103ZM21.5617 19.7103C21.3732 19.6948 21.1845 19.7366 21.0202 19.83C20.8559 19.9235 20.7236 20.0644 20.6406 20.2343C20.5577 20.4042 20.5279 20.5952 20.5553 20.7823C20.5826 20.9693 20.6658 21.1438 20.7938 21.2828C20.9219 21.4219 21.089 21.5191 21.2732 21.5616C21.4574 21.6042 21.6502 21.5902 21.8263 21.5214C22.0024 21.4527 22.1537 21.3324 22.2603 21.1763C22.3669 21.0202 22.424 20.8355 22.424 20.6464C22.4294 20.5284 22.4113 20.4105 22.3709 20.2994C22.3306 20.1884 22.2686 20.0864 22.1887 19.9994C22.1087 19.9124 22.0123 19.8421 21.9051 19.7924C21.7978 19.7428 21.6818 19.7149 21.5638 19.7103H21.5617Z" fill="white" style="fill:white;fill-opacity:1;"/>
<path id="Vector_2" d="M25.6628 12.6349H14.3617C14.1339 12.6354 13.9085 12.6809 13.6983 12.7686C13.4881 12.8564 13.2973 12.9847 13.1367 13.1462C12.9761 13.3078 12.849 13.4994 12.7625 13.7101C12.6761 13.9209 12.632 14.1466 12.6328 14.3743V25.7745C12.632 26.0023 12.6761 26.228 12.7625 26.4387C12.849 26.6494 12.9761 26.841 13.1367 27.0026C13.2973 27.1641 13.4881 27.2925 13.6983 27.3802C13.9085 27.4679 14.1339 27.5134 14.3617 27.5139H23.9255L23.4785 25.9537L24.558 26.9552L25.5785 27.8998L27.3917 29.5022V14.3743C27.3925 14.1466 27.3485 13.9209 27.262 13.7101C27.1755 13.4994 27.0484 13.3078 26.8878 13.1462C26.7272 12.9847 26.5364 12.8564 26.3262 12.7686C26.116 12.6809 25.8906 12.6354 25.6628 12.6349V12.6349ZM22.4074 23.6513C22.4074 23.6513 22.1038 23.2887 21.8508 22.9661C22.4626 22.8232 23.004 22.4684 23.3794 21.9646C23.0759 22.1666 22.7506 22.3335 22.4095 22.4622C22.0172 22.6297 21.6069 22.7513 21.1866 22.8248C20.4643 22.9578 19.7236 22.955 19.0023 22.8164C18.5789 22.7336 18.1639 22.6122 17.7626 22.4538C17.4237 22.3224 17.0999 22.1548 16.7969 21.9541C17.1578 22.4477 17.6799 22.7997 18.2728 22.9492C18.0198 23.2697 17.7078 23.6492 17.7078 23.6492C17.2068 23.6628 16.7102 23.5529 16.2616 23.3294C15.8131 23.1058 15.4263 22.7755 15.1355 22.3673C15.1622 20.6577 15.5768 18.9765 16.3478 17.4505C17.0276 16.9166 17.8565 16.6072 18.7198 16.565L18.8041 16.6662C17.9926 16.867 17.2353 17.2442 16.5861 17.771C16.5861 17.771 16.7716 17.6698 17.0837 17.5264C17.6906 17.2495 18.3374 17.0701 19.0002 16.9951C19.0474 16.9853 19.0954 16.9797 19.1436 16.9782C19.7087 16.9046 20.2807 16.8989 20.8472 16.9613C21.7381 17.0631 22.6004 17.3381 23.3857 17.771C22.7694 17.2693 22.0537 16.9042 21.2857 16.6999L21.4038 16.565C22.2671 16.6072 23.096 16.9166 23.7758 17.4505C24.5469 18.9765 24.9614 20.6577 24.9881 22.3673C24.6951 22.7754 24.3068 23.1057 23.8571 23.3295C23.4073 23.5533 22.9096 23.6638 22.4074 23.6513Z" fill="white" style="fill:white;fill-opacity:1;"/>
</g>
</g>
</g>
</svg>
