<svg width="13" height="13" viewBox="0 0 13 13" fill="none" xmlns="http://www.w3.org/2000/svg">
<g id="chevron/down">
<path id="Vector" fill-rule="evenodd" clip-rule="evenodd" d="M10.6931 4.46995C10.8339 4.32912 11.0249 4.25 11.2241 4.25C11.4233 4.25 11.6143 4.32912 11.7551 4.46995C11.8959 4.61078 11.975 4.80178 11.975 5.00095C11.975 5.20011 11.8959 5.39112 11.7551 5.53195L7.03009 10.2559C6.88947 10.3964 6.69884 10.4753 6.50009 10.4753C6.30134 10.4753 6.11072 10.3964 5.97009 10.2559L1.24509 5.53195C1.10426 5.39112 1.02515 5.20011 1.02515 5.00095C1.02515 4.80178 1.10426 4.61078 1.24509 4.46995C1.38592 4.32912 1.57693 4.25 1.77609 4.25C1.97526 4.25 2.16626 4.32912 2.30709 4.46995L6.50009 8.66295L10.6931 4.46995Z" fill="black" style="fill:black;fill-opacity:1;"/>
</g>
</svg>
