<svg width="17" height="16" viewBox="0 0 17 16" fill="none" xmlns="http://www.w3.org/2000/svg">
<g id="down 1">
<g id="16">
<path id="Vector" d="M8.49996 10.6666C8.41222 10.6671 8.32525 10.6503 8.24402 10.6171C8.1628 10.584 8.08892 10.5351 8.02663 10.4733L4.02663 6.47329C3.90109 6.34776 3.83057 6.1775 3.83057 5.99996C3.83057 5.82243 3.90109 5.65216 4.02663 5.52663C4.15216 5.40109 4.32243 5.33057 4.49996 5.33057C4.6775 5.33057 4.84776 5.40109 4.97329 5.52663L8.49996 9.05996L12.0266 5.53329C12.1542 5.42408 12.3182 5.36701 12.486 5.37349C12.6538 5.37997 12.8129 5.44952 12.9317 5.56825C13.0504 5.68698 13.12 5.84614 13.1264 6.01393C13.1329 6.18171 13.0758 6.34576 12.9666 6.47329L8.96663 10.4733C8.84245 10.5965 8.67485 10.6659 8.49996 10.6666Z" fill="#3D3D3D" style="fill:#3D3D3D;fill:color(display-p3 0.2375 0.2375 0.2375);fill-opacity:1;"/>
</g>
</g>
</svg>
