<?xml version="1.0" standalone="no"?>
<!DOCTYPE svg PUBLIC "-//W3C//DTD SVG 20010904//EN"
 "http://www.w3.org/TR/2001/REC-SVG-20010904/DTD/svg10.dtd">
<svg version="1.0" xmlns="http://www.w3.org/2000/svg"
 width="40.000000pt" height="40.000000pt" viewBox="0 0 40.000000 40.000000"
 preserveAspectRatio="xMidYMid meet">

<g transform="translate(0.000000,40.000000) scale(0.100000,-0.100000)"
fill="#000000" stroke="none">
<path d="M140 365 c0 -25 4 -35 13 -32 6 2 12 16 12 32 0 16 -6 30 -12 33 -9
2 -13 -8 -13 -33z"/>
<path d="M82 349 c2 -7 10 -15 17 -17 8 -3 12 1 9 9 -2 7 -10 15 -17 17 -8 3
-12 -1 -9 -9z"/>
<path d="M196 344 c-4 -11 -1 -14 11 -12 9 2 18 9 21 16 6 18 -25 15 -32 -4z"/>
<path d="M225 299 l-64 -62 -10 26 c-11 28 -39 41 -65 31 -13 -5 -16 -21 -16
-82 0 -64 -3 -79 -22 -99 l-22 -23 44 -45 c44 -44 45 -45 110 -45 l67 0 61 64
c65 67 69 75 51 93 -13 13 -33 47 -49 81 -8 19 -6 29 12 53 17 23 20 34 12 47
-21 32 -43 24 -109 -39z m36 -34 c-34 -35 -61 -68 -61 -73 0 -6 20 -31 45 -56
25 -26 45 -51 45 -55 0 -5 -14 -21 -31 -35 -24 -21 -41 -26 -83 -26 -46 0 -56
4 -86 35 -32 33 -33 36 -17 53 13 14 17 37 17 90 0 58 3 72 15 72 9 0 20 -12
26 -27 5 -16 17 -42 26 -59 13 -25 13 -35 3 -53 -15 -29 -3 -42 16 -17 16 23
18 54 4 76 -7 12 6 31 57 82 37 37 70 65 75 62 5 -3 -18 -34 -51 -69z m13 -61
c-9 -13 -23 -24 -30 -24 -20 0 -17 10 7 37 28 29 44 20 23 -13z m36 -33 c-13
-25 -27 -34 -41 -26 -13 9 18 45 38 45 10 0 11 -5 3 -19z m30 -36 c0 -16 -27
-32 -37 -21 -7 7 16 36 28 36 5 0 9 -7 9 -15z"/>
</g>
</svg>
