<?xml version="1.0" standalone="no"?>
<!DOCTYPE svg PUBLIC "-//W3C//DTD SVG 20010904//EN"
 "http://www.w3.org/TR/2001/REC-SVG-20010904/DTD/svg10.dtd">
<svg version="1.0" xmlns="http://www.w3.org/2000/svg"
 width="40.000000pt" height="40.000000pt" viewBox="0 0 40.000000 40.000000"
 preserveAspectRatio="xMidYMid meet">

<g transform="translate(0.000000,40.000000) scale(0.100000,-0.100000)"
fill="#000000" stroke="none">
<path d="M90 325 c0 -3 6 -21 14 -39 23 -55 126 -118 126 -78 0 28 -38 81 -72
102 -31 19 -68 27 -68 15z"/>
<path d="M304 286 c-30 -29 -44 -52 -44 -70 l0 -26 38 15 c47 20 67 40 87 88
l15 37 -26 0 c-18 0 -41 -14 -70 -44z"/>
<path d="M4 156 c-8 -22 0 -101 11 -101 5 0 11 9 14 20 2 11 8 24 15 28 8 6 8
10 -1 14 -15 6 -17 33 -3 33 6 0 10 5 10 10 0 15 -40 12 -46 -4z"/>
<path d="M70 110 c0 -33 4 -60 10 -60 6 0 10 9 10 20 0 26 16 26 23 -1 10 -36
26 -11 23 35 -4 55 -11 66 -42 66 -23 0 -24 -3 -24 -60z m40 25 c0 -8 -4 -15
-10 -15 -5 0 -10 7 -10 15 0 8 5 15 10 15 6 0 10 -7 10 -15z"/>
<path d="M152 113 c3 -51 6 -58 26 -61 24 -4 32 22 10 31 -10 4 -9 8 2 17 11
9 12 13 3 17 -15 6 -17 33 -3 33 6 0 10 5 10 10 0 6 -11 10 -25 10 -25 0 -26
-2 -23 -57z"/>
<path d="M222 158 c-18 -18 -15 -36 8 -50 11 -7 20 -17 20 -21 0 -5 -9 -5 -20
-2 -11 4 -20 2 -20 -4 0 -14 32 -29 48 -24 19 7 14 50 -8 66 -22 15 -17 29 7
20 11 -4 14 -2 11 8 -6 19 -30 23 -46 7z"/>
<path d="M290 109 c0 -37 4 -58 10 -54 6 3 10 15 10 26 0 25 18 25 22 -1 6
-41 23 -19 26 35 2 44 0 55 -13 55 -9 0 -15 -9 -15 -25 0 -14 -4 -25 -10 -25
-5 0 -10 11 -10 25 0 14 -4 25 -10 25 -6 0 -10 -27 -10 -61z"/>
</g>
</svg>
