<svg width="28" height="28" viewBox="0 0 28 28" fill="none" xmlns="http://www.w3.org/2000/svg">
<g id="ci:grid-big-round">
<path id="Vector" d="M18.6668 22.1668C17.7386 22.1668 16.8483 21.7981 16.192 21.1417C15.5356 20.4853 15.1668 19.5951 15.1668 18.6668C15.1668 17.7386 15.5356 16.8483 16.192 16.192C16.8483 15.5356 17.7386 15.1668 18.6668 15.1668C19.5951 15.1668 20.4853 15.5356 21.1417 16.192C21.7981 16.8483 22.1668 17.7386 22.1668 18.6668C22.1668 19.5951 21.7981 20.4853 21.1417 21.1417C20.4853 21.7981 19.5951 22.1668 18.6668 22.1668ZM9.3335 22.1668C8.40524 22.1668 7.515 21.7981 6.85862 21.1417C6.20225 20.4853 5.8335 19.5951 5.8335 18.6668C5.8335 17.7386 6.20225 16.8483 6.85862 16.192C7.515 15.5356 8.40524 15.1668 9.3335 15.1668C10.2618 15.1668 11.152 15.5356 11.8084 16.192C12.4647 16.8483 12.8335 17.7386 12.8335 18.6668C12.8335 19.5951 12.4647 20.4853 11.8084 21.1417C11.152 21.7981 10.2618 22.1668 9.3335 22.1668ZM18.6668 12.8335C17.7386 12.8335 16.8483 12.4647 16.192 11.8084C15.5356 11.152 15.1668 10.2618 15.1668 9.3335C15.1668 8.40524 15.5356 7.515 16.192 6.85862C16.8483 6.20225 17.7386 5.8335 18.6668 5.8335C19.5951 5.8335 20.4853 6.20225 21.1417 6.85862C21.7981 7.515 22.1668 8.40524 22.1668 9.3335C22.1668 10.2618 21.7981 11.152 21.1417 11.8084C20.4853 12.4647 19.5951 12.8335 18.6668 12.8335ZM9.3335 12.8335C8.40524 12.8335 7.515 12.4647 6.85862 11.8084C6.20225 11.152 5.8335 10.2618 5.8335 9.3335C5.8335 8.40524 6.20225 7.515 6.85862 6.85862C7.515 6.20225 8.40524 5.8335 9.3335 5.8335C10.2618 5.8335 11.152 6.20225 11.8084 6.85862C12.4647 7.515 12.8335 8.40524 12.8335 9.3335C12.8335 10.2618 12.4647 11.152 11.8084 11.8084C11.152 12.4647 10.2618 12.8335 9.3335 12.8335Z" fill="black" style="fill:black;fill-opacity:1;"/>
</g>
</svg>
