<svg width="32" height="32" viewBox="0 0 32 32" fill="none" xmlns="http://www.w3.org/2000/svg">
<g id="Info">
<path id="Shape" d="M16 2.66528C23.365 2.66528 29.3354 8.63575 29.3354 16.0007C29.3354 23.3656 23.365 29.3361 16 29.3361C8.63507 29.3361 2.66461 23.3656 2.66461 16.0007C2.66461 8.63575 8.63507 2.66528 16 2.66528ZM16 4.66528C9.73964 4.66528 4.66461 9.74032 4.66461 16.0007C4.66461 22.2611 9.73964 27.3361 16 27.3361C22.2604 27.3361 27.3354 22.2611 27.3354 16.0007C27.3354 9.74032 22.2604 4.66528 16 4.66528ZM15.9952 13.9994C16.5014 13.9991 16.9201 14.375 16.9866 14.8631L16.9958 14.9987L17.0006 22.3342C17.001 22.8865 16.5535 23.3345 16.0013 23.3349C15.495 23.3352 15.0764 22.9593 15.0098 22.4712L15.0006 22.3355L14.9958 15C14.9954 14.4478 15.4429 13.9998 15.9952 13.9994ZM16.0006 9.33571C16.736 9.33571 17.3322 9.93186 17.3322 10.6673C17.3322 11.4027 16.736 11.9988 16.0006 11.9988C15.2652 11.9988 14.6691 11.4027 14.6691 10.6673C14.6691 9.93186 15.2652 9.33571 16.0006 9.33571Z" fill="#0C0C0C" style="fill:#0C0C0C;fill:color(display-p3 0.0471 0.0471 0.0471);fill-opacity:1;"/>
</g>
</svg>
