<svg width="32" height="32" viewBox="0 0 32 32" fill="none" xmlns="http://www.w3.org/2000/svg">
<g id="3">
<circle id="BG" cx="16" cy="16" r="16" fill="#809D79" style="fill:#9A5CF5;fill:color(display-p3 0.6039 0.3608 0.9608);fill-opacity:1;"/>
<g id="logo-instagram 1">
<g id="Group">
<path id="Vector" d="M16.0007 9.65284C18.0678 9.65284 18.3126 9.66058 19.1292 9.69781C19.6202 9.70382 20.1065 9.79397 20.567 9.96436C20.9009 10.0931 21.2042 10.2904 21.4573 10.5435C21.7104 10.7966 21.9077 11.0999 22.0365 11.4338C22.2069 11.8944 22.297 12.3807 22.303 12.8716C22.3399 13.6882 22.348 13.933 22.348 16.0001C22.348 18.0672 22.3403 18.312 22.303 19.1286C22.297 19.6196 22.2069 20.1059 22.0365 20.5664C21.9077 20.9003 21.7104 21.2036 21.4573 21.4567C21.2042 21.7098 20.9009 21.9071 20.567 22.0359C20.1065 22.2063 19.6202 22.2964 19.1292 22.3024C18.313 22.3393 18.0682 22.3474 16.0007 22.3474C13.9333 22.3474 13.6885 22.3397 12.8722 22.3024C12.3813 22.2964 11.895 22.2063 11.4345 22.0359C11.1005 21.9071 10.7972 21.7098 10.5441 21.4567C10.291 21.2036 10.0938 20.9003 9.96496 20.5664C9.79458 20.1059 9.70443 19.6196 9.69842 19.1286C9.66155 18.312 9.65344 18.0672 9.65344 16.0001C9.65344 13.933 9.66119 13.6882 9.69842 12.8716C9.70443 12.3807 9.79458 11.8944 9.96496 11.4338C10.0938 11.0999 10.291 10.7966 10.5441 10.5435C10.7972 10.2904 11.1005 10.0931 11.4345 9.96436C11.895 9.79397 12.3813 9.70382 12.8722 9.69781C13.6888 9.66095 13.9336 9.65284 16.0007 9.65284ZM16.0007 8.25781C13.8993 8.25781 13.6346 8.26666 12.8088 8.30426C12.1663 8.31704 11.5305 8.43871 10.9287 8.66408C10.4123 8.85861 9.94469 9.16346 9.55833 9.55735C9.16408 9.94385 8.85897 10.4118 8.66432 10.9284C8.43895 11.5303 8.31728 12.166 8.3045 12.8086C8.26764 13.6337 8.25879 13.8984 8.25879 15.9997C8.25879 18.1011 8.26764 18.3658 8.30524 19.1916C8.31802 19.8342 8.43969 20.4699 8.66506 21.0718C8.85949 21.5884 9.16435 22.0563 9.55833 22.4429C9.9449 22.8369 10.4128 23.1417 10.9294 23.3362C11.5313 23.5615 12.167 23.6832 12.8096 23.696C13.6354 23.7328 13.899 23.7424 16.0015 23.7424C18.104 23.7424 18.3675 23.7336 19.1934 23.696C19.8359 23.6832 20.4717 23.5615 21.0735 23.3362C21.5877 23.1369 22.0545 22.8325 22.4443 22.4424C22.8341 22.0524 23.1382 21.5853 23.3371 21.0711C23.5625 20.4692 23.6842 19.8335 23.6969 19.1909C23.7338 18.3658 23.7427 18.1011 23.7427 15.9997C23.7427 13.8984 23.7338 13.6337 23.6962 12.8079C23.6834 12.1653 23.5618 11.5296 23.3364 10.9277C23.142 10.4111 22.8371 9.94318 22.4431 9.55661C22.0566 9.16263 21.5886 8.85778 21.0721 8.66334C20.4702 8.43797 19.8344 8.31631 19.1919 8.30353C18.3668 8.26666 18.1021 8.25781 16.0007 8.25781Z" fill="white" style="fill:white;fill-opacity:1;"/>
<path id="Vector_2" d="M16.0023 12.0242C15.216 12.0242 14.4473 12.2574 13.7935 12.6943C13.1397 13.1311 12.6302 13.752 12.3292 14.4785C12.0283 15.2049 11.9496 16.0043 12.103 16.7755C12.2564 17.5467 12.6351 18.2551 13.1911 18.8111C13.7471 19.3671 14.4555 19.7458 15.2267 19.8992C15.9979 20.0526 16.7972 19.9738 17.5237 19.6729C18.2502 19.372 18.8711 18.8625 19.3079 18.2087C19.7448 17.5549 19.9779 16.7862 19.9779 15.9999C19.9779 14.9455 19.5591 13.9343 18.8135 13.1887C18.0679 12.4431 17.0567 12.0242 16.0023 12.0242ZM16.0023 18.5805C15.4919 18.5805 14.9929 18.4292 14.5686 18.1456C14.1442 17.8621 13.8134 17.459 13.6181 16.9875C13.4228 16.5159 13.3716 15.997 13.4712 15.4964C13.5708 14.9958 13.8166 14.536 14.1775 14.1751C14.5384 13.8142 14.9982 13.5684 15.4988 13.4688C15.9994 13.3693 16.5183 13.4204 16.9899 13.6157C17.4614 13.811 17.8644 14.1418 18.148 14.5662C18.4316 14.9906 18.5829 15.4895 18.5829 15.9999C18.5829 16.6843 18.311 17.3407 17.8271 17.8247C17.3431 18.3087 16.6867 18.5805 16.0023 18.5805Z" fill="white" style="fill:white;fill-opacity:1;"/>
<path id="Vector_3" d="M20.1341 12.7965C20.6472 12.7965 21.0631 12.3806 21.0631 11.8675C21.0631 11.3544 20.6472 10.9385 20.1341 10.9385C19.621 10.9385 19.2051 11.3544 19.2051 11.8675C19.2051 12.3806 19.621 12.7965 20.1341 12.7965Z" fill="white" style="fill:white;fill-opacity:1;"/>
</g>
</g>
</g>
</svg>
