<svg width="122" height="176" viewBox="0 0 122 176" fill="none" xmlns="http://www.w3.org/2000/svg">
<g id="Clip path group">
<g id="Group">
<path id="Vector" d="M0.570757 16.6495C0.429619 16.6714 0.315993 16.7111 0.219439 16.7449C-0.0993319 16.9011 -0.353581 17.1761 -0.475405 17.5121C-0.597221 17.8481 -0.594502 18.1868 -0.43023 18.6291L-0.230001 19.1506L-0.157019 19.3308C0.00667562 19.77 0.16696 20.191 0.347827 20.6087C0.665621 21.3223 0.908069 21.8593 1.15914 22.3289C1.47294 23.0212 1.89127 23.7223 2.21653 24.2652L2.31008 24.4422L2.42764 24.6343C2.36022 24.7107 2.3242 24.8419 2.3138 25.013L2.27088 25.318L2.2565 25.4678L2.23244 25.663L2.19521 25.9011C1.95086 26.8935 1.57231 27.9287 1.05262 28.9858C0.537086 29.9355 -0.0121483 30.7209 -0.608748 31.3661C-2.18061 33.0104 -4.1145 34.3687 -5.80559 35.504C-6.23977 35.8038 -6.65736 36.079 -7.09096 36.3817L-7.25494 36.492C-7.76053 36.8467 -8.26669 37.1985 -8.77864 37.5354C-9.86579 38.2756 -10.8582 39.0858 -11.7815 39.8445C-12.7322 40.6514 -13.6836 41.584 -14.567 42.6536C-15.2202 43.4332 -15.8305 44.3129 -16.3626 45.0768L-16.4603 45.2175L-16.929 45.8837C-17.6022 46.8799 -18.2024 47.9275 -18.6489 49.036C-19.0989 50.1263 -19.5124 51.3145 -19.7657 52.0319L-20.1008 52.9756C-20.2227 53.3116 -20.2993 53.6626 -20.3824 53.9958L-20.4236 54.2125C-20.5449 54.762 -20.6662 55.3114 -20.7904 55.8613C-20.9438 56.5633 -21.0333 57.2993 -21.1278 57.9921L-21.1851 58.4468L-21.3307 59.5306L-21.3456 59.6617L-21.364 59.7901C-21.392 59.964 -21.423 60.1384 -21.4339 60.2908C-21.4522 60.4192 -21.4311 60.6294 -21.4158 60.7118C-21.3828 61.0018 -21.2687 61.1756 -21.1465 61.3921L-21.0895 61.4869C-20.993 61.6634 -20.6419 61.9072 -20.4432 61.9831C-20.1617 62.065 -19.9327 62.0922 -19.6739 62.0521C-19.574 62.0365 -19.4563 62.0183 -19.3598 61.9845C-19.109 61.9016 -18.8902 61.7609 -18.6748 61.6018L-18.5662 61.519C-18.2333 61.3418 -17.8899 61.2037 -17.4701 61.0538L-17.2022 60.9494C-16.8206 60.8054 -16.4979 60.6705 -16.1471 60.5721C-15.7199 60.4618 -15.2686 60.351 -14.8375 60.2621L-14.5033 60.1882C-14.3445 60.1636 -14.2098 60.1238 -14.0686 60.1019C-13.8139 60.0404 -13.566 59.9579 -13.3147 59.8781L-13.2393 59.8444L-12.9468 59.7582C-11.7525 59.3813 -10.6802 58.9825 -9.69488 58.5721C-9.14536 58.3392 -8.50383 58.0481 -7.94684 57.6445C-7.63946 57.4273 -7.31549 57.1855 -7.01211 56.9469L-6.69108 56.7055L-6.32831 56.4608L-6.18491 56.3538L-6.07632 56.271C-5.71755 56.0049 -5.41017 55.7877 -5.12736 55.5523C-4.61259 55.1333 -4.16459 54.6807 -3.73318 54.2527C-2.28136 52.8405 -0.925344 51.3365 0.298152 49.7871C0.464392 49.5917 0.609003 49.3777 0.754184 49.1668C0.916436 48.9501 1.08162 48.733 1.24387 48.5162C1.57825 48.1033 1.90627 47.6725 2.21313 47.2418C2.73259 46.5238 3.13965 45.7385 3.54034 44.9353L3.57011 44.8679L3.64379 44.7277L3.69015 44.6358C3.87078 44.2906 4.04743 43.9241 4.20349 43.5608C4.29896 43.3105 4.39793 43.0628 4.49397 42.8156L4.53739 42.7241L4.63581 42.4733L4.77128 42.1132L4.85709 41.9084L4.88392 41.8414C5.06177 41.368 5.25622 40.87 5.37631 40.4275C5.43812 40.2075 5.49935 39.9845 5.55717 39.7432L5.5892 39.5907L5.66929 39.258L5.61996 39.7554L5.60331 39.9904C5.57036 40.8024 5.56488 41.4374 5.51434 42.0418C5.4992 42.7223 5.41832 43.3911 5.35062 44.017L5.30129 44.5144C5.24741 44.9874 5.19808 45.4849 5.12362 45.9611C4.93964 47.1796 4.73797 48.6112 4.47853 50.0737C4.24553 51.3375 4.03472 52.623 3.82287 53.8866L3.77701 54.192C3.63386 55.0619 3.48377 55.911 3.32059 56.7871C3.09163 57.8619 2.88724 58.9548 2.69944 60.0232L2.68106 60.1517L2.61757 60.4598C2.47446 61.1194 2.33478 61.7972 2.19168 62.4568C2.14704 62.6552 2.119 62.8291 2.07436 63.0276L2.06916 63.1132L2.04631 63.2015C1.80018 64.2978 1.4934 65.6201 1.09692 67.2075C1.07634 67.2107 1.02551 67.2625 0.99175 67.3086L0.295699 68.1827C0.0956999 68.4241 -0.121371 68.6713 -0.345372 68.8976L-0.413367 68.971L-0.616785 69.1941L-0.667132 69.2647C-0.9522 69.5852 -1.41338 70.0807 -1.82419 70.5055C-2.7332 71.3248 -3.66053 72.0621 -4.70027 72.7321C-5.46582 73.234 -6.29816 73.7023 -6.91113 74.0329L-6.98311 74.0849L-7.1305 74.1706L-7.89085 74.5869C-9.84972 75.6979 -11.6653 76.9122 -13.3262 78.2092L-13.8238 78.6067C-14.5025 79.136 -15.2533 79.7172 -15.9137 80.3283C-16.7371 81.0715 -17.6793 81.9399 -18.5404 82.9024C-19.1975 83.6606 -19.9696 84.5654 -20.6091 85.5155C-21.0063 86.1266 -21.3492 86.6885 -21.6356 87.2447C-21.9237 87.7761 -22.1655 88.3442 -22.364 88.8208L-22.4508 89.0039C-23.0191 90.2381 -23.4257 91.4472 -23.7279 92.6809C-24.0305 93.8958 -24.2555 94.9919 -24.4017 96.0727L-24.518 96.8757C-24.6698 97.8129 -24.7861 98.6158 -24.8601 99.3055L-24.9535 100.02L-24.9674 100.383C-25.0654 101.058 -25.2356 102.334 -25.2824 103.509C-25.2861 104.04 -25.2824 104.611 -25.2678 105.224C-25.261 105.374 -25.2548 105.521 -25.224 105.685C-25.1705 105.972 -24.9767 106.686 -24.3388 106.926C-23.9865 107.063 -23.7124 107.105 -23.4919 107.071C-23.4125 107.059 -23.3371 107.025 -23.2235 106.985C-22.9247 106.835 -22.799 106.731 -22.5447 106.456C-22.5099 106.432 -22.4933 106.407 -22.4561 106.38C-22.2527 106.157 -22.1167 106.01 -22.0059 105.842L-21.7384 105.524C-21.5053 105.234 -21.339 105.038 -21.1698 104.842C-20.8356 104.558 -20.4363 104.283 -20.0701 104.056C-19.5811 103.726 -19.0852 103.417 -18.5682 103.123L-17.9415 102.753C-16.9315 102.15 -15.97 101.596 -15.0222 100.984C-14.2361 100.479 -13.3849 99.9009 -12.336 99.1666L-12.084 98.9768L-12.012 98.9248C-11.6704 98.6803 -11.367 98.4417 -11.0842 98.2062C-10.5352 97.76 -10.0432 97.2189 -9.61578 96.7695C-9.42602 96.5705 -9.24319 96.3506 -9.07695 96.1553C-8.88718 95.9563 -8.70036 95.7577 -8.51752 95.5378C-8.11117 95.0729 -7.72834 94.6116 -7.35006 94.1259L-7.06548 93.7865C-6.80204 93.4474 -6.51745 93.1081 -6.25401 92.7689C-5.89281 92.289 -5.56415 91.7482 -5.36294 91.3998C-5.14807 91.0274 -4.96004 90.7219 -4.776 90.3951L-4.61301 90.0527L-4.56958 89.9612C-4.49638 89.8022 -4.45695 89.6894 -4.39294 89.5947L-4.15229 89.1335C-3.93848 88.7392 -3.74922 88.3268 -3.56235 87.9179C-3.27412 87.2578 -2.9494 86.4852 -2.63606 85.6517L-2.5897 85.5597L-2.54627 85.4682L-2.51944 85.4012L-2.60756 85.9016L-2.61276 85.9871C-2.71024 86.6804 -2.78362 87.3731 -2.89873 88.0692C-3.08953 89.3484 -3.25917 90.6274 -3.42483 91.9279C-3.60365 93.2711 -3.74305 94.5016 -3.84527 95.7042C-3.96286 96.8245 -3.99131 97.8713 -4.02177 99.3611C-4.02824 99.7639 -4.03812 100.149 -4.0446 100.551L-4.05206 100.722C-4.07582 101.47 -4.07853 102.233 -4.08227 102.975L-4.08198 103.527C-4.09684 103.658 -4.11522 103.787 -4.10951 103.915C-4.09811 103.976 -4.10332 104.061 -4.06735 104.14C-4.07654 104.205 -4.06458 104.269 -4.06978 104.354L-4.11221 104.678L-4.17229 105.004C-4.22953 105.249 -4.29134 105.469 -4.36679 105.713L-4.47665 106.113L-4.50244 106.202C-4.67978 106.889 -4.86167 107.551 -5.06653 108.22L-5.09336 108.287L-5.13279 108.4L-5.24144 108.693L-5.36847 109.115C-5.56518 109.698 -5.76482 110.281 -5.94152 110.858C-6.04219 111.194 -6.168 111.509 -6.26867 111.845L-6.3339 112.046L-6.35332 112.153L-6.38252 112.223L-6.42253 112.333L-6.47458 112.492L-6.55297 112.737C-6.70625 113.228 -6.85612 113.738 -6.9854 114.245C-7.05925 114.514 -7.1273 114.797 -7.22172 115.069C-7.32295 115.402 -7.41102 115.692 -7.46086 115.976C-7.60795 116.614 -7.75267 117.249 -7.8752 117.906C-8.36116 120.229 -8.17051 122.79 -7.95857 125.027L-7.92388 125.423L-7.89653 125.57C-7.73225 127.114 -7.55363 128.719 -7.1728 130.208C-6.99094 130.858 -6.75596 131.565 -6.49194 132.331C-6.21929 133.03 -5.85635 133.758 -5.5899 134.31L-5.49634 134.487C-5.22591 135.061 -4.95946 135.613 -4.66844 136.183C-4.53892 136.439 -4.41339 136.674 -4.26329 136.927C-4.13775 137.162 -3.98765 137.415 -3.85813 137.671C-3.56606 138.263 -3.23388 138.827 -2.97021 139.251L-2.93718 139.33C-2.63299 139.858 -2.36533 140.303 -2.11768 140.754C-2.05667 140.87 -2.01672 140.971 -1.93512 141.084L-1.75304 141.394C-1.59895 141.669 -1.44438 141.962 -1.2863 142.258L-1.0598 142.709C-0.869748 143.063 -0.676282 143.434 -0.493154 143.767C-0.249494 144.197 -0.00640164 144.624 0.23726 145.054L0.362794 145.289L0.427316 145.407L0.480922 145.484C0.784548 146.008 1.0858 146.536 1.37283 147.085L1.47274 147.28L1.53433 147.399L1.62562 147.661L1.81615 148.033L1.87669 148.131C2.01362 148.426 2.15453 148.744 2.30967 149.04C2.31707 149.079 2.34165 149.098 2.34962 149.14L2.49574 149.372L2.54934 149.448L2.64186 149.604C2.71483 149.784 2.81873 150 3.0413 150.22C3.36556 150.531 3.82125 150.67 4.23878 150.605C4.53576 150.559 4.83452 150.409 5.05452 150.162C5.34253 149.841 5.43758 149.361 5.51368 149.007L5.53206 148.879C5.63677 148.354 5.74442 147.828 5.84515 147.282L5.86694 147.172L5.90418 146.934L5.99467 146.43C6.07533 146.101 6.12239 145.688 6.15171 145.197C6.17697 144.895 6.2068 144.617 6.25265 144.312C6.37297 143.53 6.52006 142.892 6.68878 142.272L6.714 142.18C6.76141 142.11 6.76141 142.11 6.75742 142.089L6.82321 141.89L6.84605 141.802L7.07254 141.151C7.26299 140.632 7.4471 140.095 7.63414 139.557C7.79142 139.087 7.94869 138.617 8.10596 138.147L7.98834 138.165C8.21118 137.835 8.34163 137.432 8.50289 136.983L8.62073 136.625C8.76482 136.198 8.88891 135.777 9.01193 135.334C9.13839 134.909 9.22425 134.494 9.32376 134.055L9.34556 133.945C9.55047 133.065 9.66108 132.134 9.73768 130.892L9.73994 130.807L9.74514 130.721L9.62232 130.825C9.8736 128.346 9.75892 125.755 9.22897 123.144C8.83021 121.105 8.0688 118.89 6.89974 116.356C6.73028 115.999 6.5608 115.643 6.39484 115.289L6.36286 115.231L6.19339 114.874L6.0205 114.499L5.98691 114.416L5.95493 114.358C5.70906 113.803 5.41064 113.193 5.00427 112.556C4.88215 112.34 4.74402 112.151 4.60824 111.958L4.50208 111.827L4.44554 111.751C4.31081 111.581 4.20066 111.428 4.11109 111.273C3.74467 110.736 3.40624 110.236 3.09238 109.754L3.03583 109.678C2.86068 109.388 2.71798 109.175 2.58327 109.004C2.45253 108.855 2.32474 108.705 2.19058 108.538L2.13404 108.462L2.00174 108.077C1.89159 107.925 1.77745 107.751 1.68788 107.595L1.59936 107.462C1.48522 107.288 1.39964 107.154 1.31747 107.038C1.17534 106.827 1.01263 106.62 0.872875 106.406L0.648582 106.08L0.53502 105.909L0.478473 105.833L0.360345 105.638L0.310727 105.583C0.196587 105.409 0.140041 105.333 0.0864351 105.257C-0.133392 104.971 -0.345721 104.709 -0.576261 104.446C-0.738974 104.239 -0.860519 104.026 -1.00322 103.812L-1.10019 103.617C-1.16471 103.498 -1.2223 103.401 -1.28227 103.306C-1.27186 103.135 -1.27238 102.922 -1.26597 102.729L-1.26476 102.622L-1.26227 102.198L-1.26378 101.752L-1.25233 101.603L-1.24592 101.41L-1.2447 101.304L-1.24343 100.986L-1.23354 100.602L-1.23228 100.284C-1.22858 99.7532 -1.20724 99.2193 -1.20355 98.6881C-1.16935 96.4568 -0.898752 94.2924 -0.63336 92.2135L-0.456739 90.745L-0.399437 90.2903C-0.348384 89.8993 -0.299702 89.5118 -0.248647 89.1209C-0.151909 88.5533 -0.0688241 88.0098 0.0108368 87.448L0.0527006 87.1212L0.0641502 86.9719L0.101382 86.7338L0.125439 86.5385C0.252173 85.5644 0.388572 84.5448 0.528958 83.5466C0.616023 83.0244 0.707085 82.5236 0.811799 81.9988L0.843262 81.8432L0.869046 81.7544L0.891888 81.6661C1.00873 81.0765 1.11865 80.4661 1.22799 79.8526L1.35229 79.0923L1.38432 78.9398C1.53385 78.0877 1.67302 77.1964 1.84075 76.3446C2.12695 75.0255 2.46457 73.6576 2.7077 72.7721L2.74315 72.6379L2.77917 72.5067L2.80096 72.3966L2.8456 72.1981C2.95204 71.7797 3.0619 71.3796 3.1654 70.9617C3.14129 71.3673 3.18501 71.8283 3.31824 72.6554C3.43388 73.2748 3.5929 74.013 3.83628 74.9925C4.00969 75.5809 4.21838 76.1639 4.43399 76.7678C4.9736 78.2319 5.64797 79.6562 6.0913 80.6047C6.67212 81.852 7.31517 83.1085 8.08155 84.4746L8.14313 84.5938C8.17112 84.6302 8.19967 84.6698 8.21107 84.7308C8.70978 85.6518 9.05042 86.2771 9.4288 86.8777C9.66791 87.2832 9.94874 87.6855 10.2266 88.0882L10.5115 88.5118C11.2523 89.6275 11.9879 90.8288 12.7759 92.2136L13.0835 92.7592C14.1739 94.7751 15.0045 96.8094 15.5199 98.8079L15.6419 99.2348L15.765 99.6835C15.7764 99.7445 15.8084 99.8023 15.8204 99.8664L15.8358 99.9488L15.8717 100.028L15.9201 100.19L15.9715 100.352C16.065 100.739 16.1607 101.041 16.5262 101.346C16.843 101.617 17.2501 101.723 17.6471 101.661C17.847 101.63 18.0526 101.532 18.2166 101.422C18.5206 101.187 18.6332 100.915 18.7041 100.646L18.7265 100.539C18.889 99.9835 19.0177 99.4737 19.1293 98.9697L19.1802 98.7075L19.3799 97.9136L19.5086 97.4038L19.5436 97.2508C19.6495 96.8293 19.753 96.4114 19.8554 95.9716C19.9985 95.3121 20.0674 94.5793 20.1265 94.0206C20.2734 92.6195 20.2627 91.1361 20.2591 90.0315C20.2589 89.2686 20.2125 88.4689 20.1432 87.5472L20.1484 87.4616L20.1331 87.3792L20.1035 87.1075C20.0842 86.7934 20.0547 86.5217 20.0388 86.2259C19.9606 85.0293 19.8537 83.9219 19.7365 82.8569C19.5852 81.6088 19.2899 80.4647 18.9564 79.1162L18.8748 79.2136C18.8339 78.6705 18.681 78.0789 18.4632 77.3498C18.3155 76.8829 18.1153 76.3614 17.8826 75.7633L17.8427 75.6628C17.4274 74.5404 16.8535 73.314 16.0871 71.9479L16.0521 72.1009L15.9906 71.7714C15.4743 70.8531 15.1381 70.268 14.7717 69.7314C14.4008 69.1548 14.0132 68.6184 13.5275 67.9937L13.229 67.5942C12.9881 67.2925 12.7638 66.9663 12.5401 66.6431L12.3478 66.3746L12.152 66.0879C12.0133 65.896 11.8746 65.704 11.7365 65.5151C11.5122 65.1888 11.2713 64.8871 11.0294 64.5636C10.7845 64.2406 10.527 63.9635 10.1246 63.5581C9.71073 63.0918 9.32147 62.6436 8.92129 62.1531L8.78714 61.9855L8.73695 61.9274C8.47149 61.6075 8.23754 61.3268 8.03886 61.0405C7.78259 60.6564 7.52528 60.2505 7.28903 59.8602C7.19652 59.705 7.10695 59.5494 6.9968 59.3969L6.96482 59.3391L6.90381 59.223L6.83929 59.1043L6.66755 58.8327C6.57163 58.6592 6.47408 58.4608 6.39712 58.2593C6.33837 58.0581 6.2374 57.8414 6.08331 57.567C6.32714 56.3612 6.53332 55.1644 6.69428 54.163L6.77737 53.6195C7.00183 52.3099 7.22581 50.9816 7.47143 49.6719C7.54012 49.2782 7.6054 48.8662 7.67704 48.4721L7.73312 48.1243L7.7984 47.7123L7.85343 47.3427L7.88148 47.1688C7.95537 46.6895 8.01562 46.2343 8.06893 45.7582L8.08558 45.5233C8.20717 44.4244 8.38201 43.0597 8.41866 41.7166C8.49329 39.6045 8.41036 37.4102 8.16125 35.2009C8.10215 34.6575 8.04467 34.1389 7.98557 33.5955C8.08255 33.7908 8.21327 33.9401 8.32741 34.1139L8.43757 34.2663L8.74003 34.6872C9.04886 35.1259 9.3759 35.5649 9.70237 36.0009C10.083 36.5164 10.5122 37.0651 11.0528 37.6594C11.3679 38.0343 11.7167 38.3632 12.1186 38.7655L12.4964 39.1527C13.2271 39.8901 13.9436 40.6485 14.6571 41.4075L15.4974 42.2943C16.462 43.3125 17.4291 44.3272 18.3967 45.3449C19.2295 46.1921 20.108 47.073 20.9329 47.8774L21.01 47.9502L21.1088 48.0416L21.2292 48.1517L21.3559 48.2795C22.5513 49.4315 23.6674 50.467 24.6744 51.3719L27.8565 54.1871C28.4931 54.7445 29.1312 55.3267 29.7552 55.93L29.9767 56.128L30.2484 56.3841L31.0413 57.1307C31.6357 57.6726 32.2237 58.1967 32.8117 58.7208L33.0337 58.9218L33.1536 59.0288C33.4944 59.315 33.8393 59.6225 34.1566 59.9123C34.526 60.238 34.9125 60.5579 35.279 60.8841C35.2847 61.0119 35.2949 61.1799 35.3462 61.3414C35.4819 61.7442 35.6176 62.147 35.7151 62.5557C36.0781 64.176 36.3183 65.9 36.4918 67.3801C36.5841 68.0848 36.6357 68.7989 36.701 69.4889L36.7357 69.8854C36.8067 70.7033 36.8149 71.5089 36.8139 72.3787C36.8127 72.4857 36.8035 72.5499 36.8149 72.6109C36.8136 72.9282 36.7964 73.2731 36.7745 73.5936L36.7581 74.3811C36.7544 74.9122 36.688 75.4312 36.6421 75.9469L36.6208 76.2705C36.5116 77.4523 36.3893 78.8715 36.2391 80.2543C36.2006 80.5994 36.1622 80.9444 36.1061 81.2922C36.0143 82.1134 35.8968 83.0233 35.8404 83.9205L35.8035 84.7112L35.7926 84.8636C35.7338 85.9747 35.683 87.1286 35.687 88.252C35.6967 89.5032 35.7573 90.7026 35.8692 91.8531C35.9806 93.0007 36.2079 94.2181 36.5197 95.548C37.0646 97.8182 37.8432 100.011 38.7862 102.113L38.9557 102.47C39.1286 102.845 39.3055 103.241 39.476 103.62L39.5719 103.793C39.7784 104.251 39.9912 104.726 40.3691 105.114C40.6226 105.369 41.0377 105.518 41.4181 105.481L41.4974 105.469C41.6974 105.438 41.9687 105.352 42.0916 105.248C42.3332 105.019 42.3709 104.994 42.5384 104.692C42.6488 104.505 42.6894 104.286 42.7306 104.069L42.7495 103.959C42.7753 103.87 42.7815 103.807 42.8073 103.718L42.8262 103.608L42.848 103.498C42.8886 103.278 42.9132 103.086 42.9579 102.888C43.3428 101.66 43.8894 100.536 44.3667 99.592C44.7571 98.8312 45.127 98.0737 45.5105 97.292L45.9404 96.4184C46.4704 95.3189 46.9392 94.3136 47.3252 93.3181C47.6991 92.3715 47.9869 91.2876 48.186 90.4906L48.3937 89.7394C48.7067 88.5637 48.9015 87.3058 49.0773 86.1734L49.1271 85.8893C49.3035 84.7599 49.3915 83.5783 49.4292 82.2569L49.4362 82.0675C49.4588 81.4266 49.4597 80.7672 49.4034 80.1417C49.3426 79.4918 49.2567 78.805 49.1399 78.0822C49.0129 77.4017 48.8682 76.724 48.7034 76.0683C48.5535 75.4762 48.3385 74.8754 48.0127 74.1191C47.7229 73.4419 47.3748 72.777 47.0513 72.1459L46.9937 72.0481L47.017 72.1732C46.8652 71.8137 46.6581 71.466 46.475 71.1333L46.2273 70.682L46.1348 70.5268L46.1953 70.6242L46.3187 70.7337L46.5333 70.9108L46.6566 71.0204L46.7308 71.0936C47.3217 71.6173 48.0045 72.2114 48.6421 72.7906C50.4152 74.509 52.1568 76.3831 54.1798 78.6781L54.3322 78.846C55.2404 79.8698 56.0115 80.7265 56.8307 81.5978L57.6104 82.3872L57.6846 82.4605C58.3907 83.1798 59.17 83.9505 59.8361 84.7795C60.4177 85.4961 60.985 86.2338 61.581 87.011L61.6311 87.0691L61.7157 87.1816L62.4719 88.1694C62.6882 88.4529 62.88 88.7183 63.0969 89.0048C62.9855 89.1697 62.9448 89.3895 62.9498 89.643C62.9823 89.9143 62.9741 90.2107 62.9528 90.5342C62.5991 93.4525 62.0263 95.959 61.1794 98.2129L61.2548 98.1792L61.133 98.3048L61.1101 98.3931L61.225 98.2466L60.8849 98.9367C60.6338 99.5691 60.3897 100.222 60.1387 100.855C59.5914 102.299 59.2253 103.417 58.9787 104.495C58.8855 104.87 58.8128 105.243 58.7166 105.619L58.5552 106.278C58.4442 106.785 58.3355 107.288 58.2204 107.774C57.6538 110.217 57.3882 112.845 57.4594 115.528C57.5247 117.725 57.9366 119.931 58.311 121.612C58.4239 122.103 58.5224 122.534 58.6691 122.979C58.8088 123.403 58.9725 123.842 59.1327 124.263L59.2457 124.544C59.6781 125.645 60.1419 126.719 60.4996 127.533L60.5686 127.692C60.7085 127.987 60.8454 128.283 60.9583 128.564L61.2361 129.177C61.385 129.537 61.5579 129.912 61.6862 130.275C61.8905 130.818 62.2678 131.202 62.72 131.323C62.9148 131.378 63.1021 131.393 63.2991 131.362C63.7166 131.297 64.0788 131.049 64.2761 130.68C64.3961 130.448 64.4333 130.21 64.4872 129.947L64.5433 129.599C64.6417 129.138 64.7196 128.68 64.826 128.262C64.9639 127.688 65.1738 127.062 65.4358 126.277C65.9555 125.009 66.4672 123.91 67.0125 122.892C67.6642 121.667 68.1606 120.275 68.5918 119.084C68.8091 118.498 68.9858 117.921 69.1814 117.316L69.2735 117.047L69.3129 116.934C69.496 116.375 69.6366 115.93 69.7557 115.465C70.0526 114.317 70.2377 113.12 70.3912 112.079L70.4393 111.689C70.5597 110.907 70.7338 109.863 70.8251 108.828C70.926 107.943 70.9744 107.003 70.9996 105.809C71.0159 105.022 71.0043 104.198 70.9795 103.417L70.9767 103.288C70.9576 102.635 70.874 101.863 70.7152 100.786L70.615 100.249L70.5671 99.8952L70.5403 99.7518C70.4942 99.5047 70.468 99.2513 70.4219 99.0041L70.8402 99.7053L71.4024 100.529L71.5451 100.742L71.6872 100.952L71.7368 101.007C72.465 102.169 73.1185 103.254 73.7656 104.322C74.391 105.371 75.0467 106.581 75.7509 107.938C76.5634 109.551 77.3181 111.196 78.0187 112.76L78.0552 112.842L78.1272 113.001C78.5385 113.891 78.9213 114.743 79.3253 115.593C79.5597 116.088 79.78 116.603 80.0145 117.097L80.047 117.158L80.079 117.216L80.108 117.274L80.2159 117.512L80.5057 118.189L80.5707 118.326C80.627 118.741 80.6869 119.159 80.7848 119.587C80.8122 119.733 80.8635 119.895 80.8903 120.038L80.929 120.246C80.9632 120.429 81.0186 120.612 81.0533 120.798C81.0801 120.941 81.1074 121.088 81.1136 121.234C81.166 121.628 81.1972 122.006 81.2176 122.342C81.2255 122.595 81.2511 122.845 81.2766 123.096C81.3017 123.327 81.3273 123.578 81.3489 123.807C81.4027 124.646 81.4395 125.491 81.4551 126.336L81.4785 127.564C81.5184 128.766 81.5795 130.179 81.7582 131.573C81.8554 132.321 81.9979 133.084 82.1323 133.804L82.3095 134.753C82.3676 135.064 82.4251 135.373 82.5032 135.678C82.5973 136.068 82.7124 136.474 82.8265 136.858L83.005 137.49C83.1908 138.161 83.3739 138.704 83.5947 139.222L83.6637 139.381C84.1304 140.455 84.662 141.666 85.3327 142.73C86.6664 144.833 88.4638 146.909 90.6748 148.899C90.9426 149.133 91.2132 149.368 91.4769 149.581L91.6213 149.706C91.7972 149.87 91.9868 150.01 92.1351 150.157C92.307 150.3 92.48 150.464 92.6489 150.608L92.8465 150.791L93.1142 151.025L93.5116 151.388C93.9728 151.784 94.4335 152.177 94.8937 152.551C95.3549 152.947 95.7946 153.325 96.2312 153.703L96.523 153.953L96.6669 154.059L96.7896 154.166L96.9586 154.309C97.1275 154.453 97.2754 154.58 97.4198 154.705C97.5672 154.83 97.7121 154.958 97.8594 155.083C98.2671 155.403 98.6536 155.723 99.1133 155.673L99.3721 155.633C99.5103 155.612 99.6474 155.568 99.8114 155.458C100.065 155.293 100.146 155.174 100.29 154.96C100.445 154.704 100.483 154.359 100.478 154.102C100.449 153.852 100.403 153.605 100.369 153.419C100.297 153.135 100.263 152.949 100.207 152.766C100.133 152.482 100.062 152.217 100.008 151.927C99.9024 151.457 99.8175 151.002 99.7326 150.547C99.584 149.428 99.5349 148.289 99.5137 147.187L99.4996 146.788L99.4455 145.396L99.4234 144.953L99.4155 144.7L99.3648 143.116C99.3285 142.485 99.2929 141.856 99.235 141.206L99.2043 140.831C99.1526 140.327 99.1191 139.823 99.0474 139.326C98.9546 138.618 98.8174 137.77 98.5767 136.919C98.4097 136.348 98.2021 135.787 98.0018 135.265L97.9624 135.168L97.9254 135.067C97.4736 133.862 97.0025 132.749 96.482 131.727C96.223 131.215 95.9639 130.703 95.6878 130.196C95.3157 129.532 94.8917 128.897 94.5932 128.498C94.0065 127.656 93.2724 126.901 92.7352 126.325C92.4846 126.069 92.2512 125.807 92.0177 125.545C91.3749 124.841 90.7008 124.179 89.8501 123.463C89.5578 123.211 89.2495 122.985 88.9366 122.736L88.8419 122.665L88.7009 122.559L88.4132 122.33L88.3178 122.257C87.7172 121.779 87.1087 121.258 86.5093 120.673C86.1325 120.307 85.6998 119.951 85.2921 119.631L85.1934 119.54L84.3861 118.943C84.3159 118.891 84.2633 118.836 84.1931 118.784C84.0464 118.55 83.8318 118.373 83.5805 118.242L83.5332 118.102L83.4602 117.922L83.4203 117.821C83.3513 117.662 83.2833 117.525 83.2354 117.382C83.187 117.22 83.123 117.104 83.0615 116.985L83.0141 116.845L82.7077 116.192C82.4858 115.652 82.241 115.119 81.9786 114.588L81.881 114.39L81.8091 114.231L81.7081 114.015L81.5786 113.759L81.5426 113.679L81.3761 113.322L80.9732 112.493L80.312 111.026C79.9652 110.254 79.6148 109.48 79.2474 108.711C78.6946 107.5 78.0486 106.244 77.3673 104.993C76.8686 104.072 76.3213 103.118 75.6011 101.999C75.3409 101.594 75.0972 101.164 74.8369 100.758C74.4837 100.179 74.1259 99.5751 73.755 98.9985L73.6881 99.0937L73.7265 98.959L73.6339 98.8038C73.2265 98.1449 72.7779 97.4924 72.355 96.8799C73.1583 97.4554 74.001 97.9179 74.9597 98.4504C76.0508 99.044 77.1397 99.5123 78.4268 100.053C79.5785 100.534 80.8325 100.996 82.0898 101.394C83.2879 101.782 84.5288 102.076 85.8879 102.355C87.1174 102.588 88.3264 102.824 89.5651 102.993L90.0476 103.066L90.5331 103.138L90.7866 103.183C91.3977 103.28 91.9596 103.34 92.525 103.403L93.0035 103.455L93.2743 103.479C93.5238 103.503 93.794 103.523 94.0435 103.548C94.2525 103.581 94.4804 103.586 94.6854 103.599L94.8339 103.616C95.1017 103.641 95.3924 103.658 95.6666 103.701C96.586 103.812 97.4752 103.972 98.5516 104.163C98.9965 104.245 99.3574 104.314 99.7355 104.362L100.01 104.405C100.409 104.471 100.791 104.538 101.194 104.623C102.324 104.874 103.423 105.168 104.485 105.493C104.833 105.609 105.182 105.724 105.509 105.843L106.119 106.043C106.446 106.143 106.686 106.232 106.957 106.256C107.06 106.258 107.182 106.261 107.282 106.246C107.679 106.184 108.062 105.933 108.229 105.631C108.41 105.286 108.552 104.733 108.247 104.187C108.113 103.91 107.867 103.694 107.645 103.474L107.568 103.401L107.465 103.291L107.338 103.16C106.953 102.733 106.588 102.3 106.29 101.923C105.968 101.508 105.641 101.069 105.331 100.609L105.242 100.475C104.826 99.8801 104.52 99.4409 104.197 99.0232C102.746 97.1699 100.863 95.5094 98.3115 93.7862C97.4939 93.2318 96.6232 92.7328 95.797 92.2457L95.6571 92.1606L95.5903 92.127L94.9919 91.7741L94.8349 91.6949C93.8266 91.1073 92.7944 90.5046 91.7271 90.0549C90.3732 89.4801 89.0216 89.0306 87.521 88.5446C86.8243 88.3136 86.0733 88.132 85.5166 87.986L85.3219 87.9315C84.6994 87.7738 83.7567 87.5371 82.8149 87.3223C82.241 87.1978 81.6854 87.0737 81.1321 86.9461L80.8751 86.8824L80.7877 86.852C80.2315 86.7249 79.6582 86.6035 79.102 86.4764C78.5081 86.3582 77.897 86.2615 77.3105 86.183L77.0992 86.153C76.5127 86.0745 75.9222 85.9747 75.3248 85.8539L75.262 85.8417L75.1752 85.8143L74.9319 85.9369C74.1216 85.7456 73.3952 85.582 72.7008 85.4764C71.9618 85.3587 71.2463 85.2375 70.5107 85.1382C70.3199 85.105 70.1149 85.0928 69.9242 85.0597L69.7574 85.0416C69.3833 85.0149 69.047 84.9635 68.71 84.909C68.4565 84.8636 68.2235 84.815 67.97 84.7696C67.6958 84.7274 67.3971 84.667 67.126 84.6243L66.8695 84.5794L66.6365 84.5308C66.6119 84.5126 66.5286 84.5036 66.4457 84.4976C65.9347 84.3854 65.4721 84.3065 64.9827 84.213L64.431 84.1102C63.9851 84.0067 63.575 83.9009 63.1605 83.7549C63.0069 83.6939 62.8504 83.6334 62.6928 83.5512L62.5393 83.4902C62.4519 83.4598 62.3651 83.4325 62.2777 83.4021C62.2086 83.372 62.1458 83.3598 62.0796 83.3293C61.6754 82.8174 61.3147 82.4088 60.9329 82.0002C60.4739 81.5189 60.0149 81.0376 59.5594 80.5588C59.0302 80.0256 58.5216 79.4892 58.009 78.9314C57.4159 78.2825 56.8211 77.6088 56.228 76.9599L55.9735 76.6823L55.9203 76.6246C54.8062 75.3564 53.6964 74.1284 52.5103 72.9123C51.5467 71.9159 50.4717 70.874 49.2421 69.7493C48.992 69.5118 48.7283 69.2985 48.4782 69.061C49.0573 69.3102 49.6465 69.517 50.2558 69.7175C51.3219 70.0638 52.508 70.3883 53.9653 70.7555L54.288 70.831L54.152 70.7673C55.5049 71.1099 56.852 71.3246 58.2421 71.4291C59.1947 71.4916 60.1541 71.4933 61.0994 71.5162L61.2233 71.5157L62.1622 71.5207C62.92 71.5287 63.6117 71.5061 64.2754 71.447C64.7415 71.4155 65.2178 71.3415 65.6736 71.2708L66.2499 71.1813C67.0261 71.0608 67.7954 70.9194 68.5643 70.7592L69.5296 70.5654L69.9819 70.4764C70.6718 70.3473 71.3853 70.2146 72.0512 70.0704C72.7743 69.8922 73.5266 69.7566 74.2577 69.6211L74.7506 69.5226C75.6199 69.3657 76.4721 69.2146 77.3454 69.079C77.5453 69.048 77.7629 69.0142 77.9629 68.9832C78.6568 68.8754 79.1953 68.8107 79.7042 68.7976C80.5415 68.7932 81.3445 68.8161 82.1349 68.885C82.3193 68.9003 82.5061 68.9121 82.6854 68.8843C82.7266 68.8779 82.7442 68.8751 82.7854 68.8688C83.3297 68.7215 83.6497 68.4583 83.8252 67.9884C83.9859 67.5364 83.8936 67.0421 83.5671 66.6061C83.3428 66.2799 82.9409 66.088 82.5988 65.9088C82.1398 65.6378 81.7367 65.3424 81.3206 64.9612C81.0951 64.7419 80.8691 64.5195 80.6475 64.3216C80.1749 63.8643 79.7485 63.4439 79.2912 63.069C78.7528 62.6 78.1842 62.1797 77.6372 61.7779C76.5702 60.9891 75.4391 60.295 74.2229 59.6958C73.2591 59.2331 72.1742 58.7862 71.0173 58.3912C70.4743 58.2212 69.9146 58.0757 69.375 57.924L69.2882 57.8967C68.4916 57.6813 67.8137 57.551 67.161 57.442C65.8109 57.2277 64.6968 57.0616 63.5466 57.0266C63.3187 57.0212 63.1137 57.009 62.8881 57.0001L62.5346 56.9702C61.707 56.9291 60.8584 56.8725 60.0245 56.8952L59.9235 56.8889C59.3946 56.9082 58.7823 56.9185 58.1678 57.0139L58.0678 57.0294C57.5709 57.1065 57.0186 57.2111 56.2955 57.3893C55.6472 57.5307 54.9749 57.6571 54.285 57.7862C53.6539 57.9061 53.0158 58.0051 52.4087 58.1402C52.1333 58.2049 51.8609 58.2692 51.5816 58.3126C51.2675 58.3802 50.9333 58.454 50.6197 58.5247C50.2268 58.6076 49.8093 58.6725 49.4123 58.7341C49.1741 58.771 48.9566 58.8048 48.7184 58.8418C48.4979 58.876 48.2837 58.9281 48.0455 58.9651C47.732 59.0357 47.3978 59.1096 47.0803 59.1589L46.8597 59.1931C46.6422 59.2269 46.4452 59.2575 46.2286 59.3131L45.9522 59.356C45.7934 59.3806 45.6175 59.4268 45.4587 59.4514C45.2382 59.4856 45.004 59.544 44.7864 59.5777C44.5111 59.6425 44.2553 59.6822 43.976 59.7255C43.6172 59.7812 43.2957 59.8092 42.9741 59.8371L42.8742 59.8526L42.5532 59.8836C42.2905 59.9024 42.0346 59.9421 41.7719 59.9609C41.3298 60.0076 40.8946 60.0751 40.4697 60.1003C40.2864 60.1068 40.0996 60.0949 39.9123 60.0801C39.4411 60.0684 39.0082 60.0509 38.5661 60.0975C37.8799 59.485 37.2674 58.9428 36.6588 58.4219C36.2221 58.0438 35.7825 57.6662 35.3429 57.2887L34.9764 56.9625C34.4872 56.5298 33.9774 56.1003 33.4881 55.6677C32.7808 55.0553 32.0661 54.4033 31.3959 53.7633L31.3434 53.7086L30.3535 52.7823C29.6873 52.1635 29.0016 51.5698 28.3394 50.9725C27.973 50.6463 27.5835 50.3269 27.2131 49.9794L26.4316 49.2938C25.9885 48.8979 25.5313 48.5231 25.1043 48.0996C24.4883 47.539 23.8889 46.9539 23.2929 46.3871L22.7923 45.8933L22.6656 45.7655C21.8927 45.0126 21.2653 44.391 20.7075 43.8183C21.3956 44.1165 22.1128 44.3442 22.7426 44.5416C23.0493 44.6447 23.3525 44.7452 23.6586 44.8452C24.1811 45.0184 24.6859 45.1944 25.2255 45.3461C26.0884 45.592 26.9929 45.8347 28.0185 46.0773L27.9111 46.0532C28.4016 46.1686 28.8951 46.2835 29.3674 46.3986C29.9246 46.5475 30.5677 46.702 31.2449 46.8292C31.8806 46.944 32.5087 47.0349 33.1163 47.1133C34.2637 47.2303 35.4738 47.3595 36.6908 47.4281C38.0341 47.4927 39.2523 47.4543 40.4083 47.2937C40.5877 47.2659 40.7847 47.2353 40.9641 47.2074C41.9579 47.0532 42.9443 46.8592 43.9096 46.6654L44.0478 46.644C44.9548 46.4623 45.9201 46.2685 46.85 45.9986L46.6706 46.0265C47.3315 45.8391 47.941 45.7005 48.4933 45.5959C48.8491 45.5407 49.2038 45.4637 49.5625 45.408C49.8595 45.3619 50.1771 45.3126 50.4701 45.2451L50.77 45.1986C51.2669 45.1214 51.7472 45.0689 52.2732 45.05L52.3977 45.0526C52.7433 45.0398 53.0648 45.0119 53.4069 44.9808C53.8039 44.9191 54.1318 44.6987 54.3239 44.4146C54.6605 43.9165 54.5602 43.3795 54.409 43.023C54.2846 42.6813 53.9541 42.4343 53.6875 42.2214C53.4979 42.0813 53.329 41.938 53.1394 41.7979C52.9007 41.6214 52.6616 41.4262 52.4229 41.2497C52.2294 41.0883 52.0364 40.9298 51.8429 40.7684C51.5266 40.5004 51.2343 40.2475 50.918 39.9795L50.366 39.5345C50.0777 39.303 49.7894 39.0715 49.5011 38.8399C48.5351 38.0574 47.7729 37.4756 47.0467 36.9729C46.132 36.352 45.1917 35.6911 44.212 35.143C43.2333 34.6168 42.2238 34.1361 41.1845 33.7229C40.4343 33.4155 39.5645 33.1486 38.5144 32.8878L38.0445 32.7692C37.1821 32.542 36.3021 32.3176 35.4341 32.1572C34.9922 32.0751 34.5313 32.021 34.0864 31.9394L33.9614 31.918C33.6461 31.8822 33.3298 31.8245 33.0145 31.7887C32.7855 31.7614 32.5771 31.731 32.3446 31.7012C31.9249 31.6407 31.484 31.5804 31.0511 31.5629C30.6593 31.5389 30.2756 31.5577 29.8843 31.5525L29.6839 31.5647L28.846 31.5661C28.1886 31.5614 27.5547 31.553 26.9042 31.5692L26.8248 31.5816C26.8043 31.5848 26.8043 31.5848 26.7837 31.588C24.791 31.643 22.8205 31.93 20.9112 32.2044L19.7928 32.3561C18.9361 32.4671 18.0771 32.5816 17.241 32.6894L16.8783 32.7237L16.3362 32.7859C15.7771 32.8539 15.2213 32.9401 14.6331 32.9655C14.2659 32.9597 13.8752 32.9576 13.5075 32.9487C13.0746 32.9311 12.6416 32.9136 12.1961 32.9419C11.829 32.9361 11.4509 32.8881 11.0934 32.8368L10.885 32.8064L10.6731 32.7733C10.4208 32.4106 10.1509 32.0506 9.87742 31.6881C9.35864 30.9837 8.81186 30.2428 8.29534 29.4533C7.85595 28.7366 7.41361 28.0204 6.97422 27.3037L6.59185 26.6817C6.32419 26.2366 6.09769 25.7851 5.85004 25.3338L5.76047 25.1781L5.72451 25.099C5.49801 24.6475 5.26801 24.1934 5.00328 23.7478C4.33788 22.5984 3.87569 21.7596 3.4152 20.8327C2.93933 19.8234 2.53496 18.7433 2.18983 17.8833L2.14589 17.7614L2.11391 17.7035C1.86932 16.831 1.14412 16.5605 0.570757 16.6495Z" fill="#E1EDDE" style="fill:#E1EDDE;fill:color(display-p3 0.8824 0.9292 0.8711);fill-opacity:1;"/>
</g>
</g>
</svg>
