<svg width="121" height="176" viewBox="0 0 121 176" fill="none" xmlns="http://www.w3.org/2000/svg">
<g id="Clip path group">
<g id="Group">
<path id="Vector" d="M121.181 16.6495C121.322 16.6714 121.436 16.7111 121.533 16.7449C121.851 16.9011 122.106 17.1761 122.227 17.5121C122.349 17.8481 122.346 18.1868 122.182 18.6291L121.982 19.1506L121.909 19.3308C121.745 19.77 121.585 20.191 121.404 20.6087C121.086 21.3223 120.844 21.8593 120.593 22.3289C120.279 23.0212 119.861 23.7223 119.535 24.2652L119.442 24.4422L119.324 24.6343C119.392 24.7107 119.428 24.8419 119.438 25.013L119.481 25.318L119.495 25.4678L119.52 25.663L119.557 25.9011C119.801 26.8935 120.18 27.9287 120.699 28.9858C121.215 29.9355 121.764 30.7209 122.361 31.3661C123.933 33.0104 125.866 34.3687 127.558 35.504C127.992 35.8038 128.409 36.079 128.843 36.3817L129.007 36.492C129.512 36.8467 130.019 37.1985 130.531 37.5354C131.618 38.2756 132.61 39.0858 133.533 39.8445C134.484 40.6514 135.436 41.584 136.319 42.6536C136.972 43.4332 137.582 44.3129 138.115 45.0768L138.212 45.2175L138.681 45.8837C139.354 46.8799 139.954 47.9275 140.401 49.036C140.851 50.1263 141.264 51.3145 141.518 52.0319L141.853 52.9756C141.975 53.3116 142.051 53.6626 142.134 53.9958L142.176 54.2125C142.297 54.762 142.418 55.3114 142.542 55.8613C142.696 56.5633 142.785 57.2993 142.88 57.9921L142.937 58.4468L143.083 59.5306L143.098 59.6617L143.116 59.7901C143.144 59.964 143.175 60.1384 143.186 60.2908C143.204 60.4192 143.183 60.6294 143.168 60.7118C143.135 61.0018 143.021 61.1756 142.898 61.3921L142.841 61.4869C142.745 61.6634 142.394 61.9072 142.195 61.9831C141.914 62.065 141.685 62.0922 141.426 62.0521C141.326 62.0365 141.208 62.0183 141.112 61.9845C140.861 61.9016 140.642 61.7609 140.427 61.6018L140.318 61.519C139.985 61.3418 139.642 61.2037 139.222 61.0538L138.954 60.9494C138.573 60.8054 138.25 60.6705 137.899 60.5721C137.472 60.4618 137.021 60.351 136.589 60.2621L136.255 60.1882C136.096 60.1636 135.962 60.1238 135.821 60.1019C135.566 60.0404 135.318 59.9579 135.067 59.8781L134.991 59.8444L134.699 59.7582C133.504 59.3813 132.432 58.9825 131.447 58.5721C130.897 58.3392 130.256 58.0481 129.699 57.6445C129.391 57.4273 129.067 57.1855 128.764 56.9469L128.443 56.7055L128.08 56.4608L127.937 56.3538L127.828 56.271C127.47 56.0049 127.162 55.7877 126.879 55.5523C126.365 55.1333 125.917 54.6807 125.485 54.2527C124.033 52.8405 122.677 51.3365 121.454 49.7871C121.288 49.5917 121.143 49.3777 120.998 49.1668C120.836 48.9501 120.67 48.733 120.508 48.5162C120.174 48.1033 119.846 47.6725 119.539 47.2418C119.019 46.5238 118.612 45.7385 118.212 44.9353L118.182 44.8679L118.108 44.7277L118.062 44.6358C117.881 44.2906 117.705 43.9241 117.548 43.5608C117.453 43.3105 117.354 43.0628 117.258 42.8156L117.215 42.7241L117.116 42.4733L116.981 42.1132L116.895 41.9084L116.868 41.8414C116.69 41.368 116.496 40.87 116.376 40.4275C116.314 40.2075 116.253 39.9845 116.195 39.7432L116.163 39.5907L116.083 39.258L116.132 39.7554L116.149 39.9904C116.182 40.8024 116.187 41.4374 116.238 42.0418C116.253 42.7223 116.334 43.3911 116.401 44.017L116.451 44.5144C116.505 44.9874 116.554 45.4849 116.628 45.9611C116.812 47.1796 117.014 48.6112 117.273 50.0737C117.506 51.3375 117.717 52.623 117.929 53.8866L117.975 54.192C118.118 55.0619 118.268 55.911 118.431 56.7871C118.66 57.8619 118.865 58.9548 119.053 60.0232L119.071 60.1517L119.134 60.4598C119.277 61.1194 119.417 61.7972 119.56 62.4568C119.605 62.6552 119.633 62.8291 119.678 63.0276L119.683 63.1132L119.706 63.2015C119.952 64.2978 120.259 65.6201 120.655 67.2075C120.676 67.2107 120.726 67.2625 120.76 67.3086L121.456 68.1827C121.656 68.4241 121.873 68.6713 122.097 68.8976L122.165 68.971L122.369 69.1941L122.419 69.2647C122.704 69.5852 123.165 70.0807 123.576 70.5055C124.485 71.3248 125.412 72.0621 126.452 72.7321C127.218 73.234 128.05 73.7023 128.663 74.0329L128.735 74.0849L128.882 74.1706L129.643 74.5869C131.602 75.6979 133.417 76.9122 135.078 78.2092L135.576 78.6067C136.254 79.136 137.005 79.7172 137.666 80.3283C138.489 81.0715 139.431 81.9399 140.292 82.9024C140.949 83.6606 141.722 84.5654 142.361 85.5155C142.758 86.1266 143.101 86.6885 143.388 87.2447C143.676 87.7761 143.917 88.3442 144.116 88.8208L144.203 89.0039C144.771 90.2381 145.178 91.4472 145.48 92.6809C145.782 93.8958 146.007 94.9919 146.154 96.0727L146.27 96.8757C146.422 97.8129 146.538 98.6158 146.612 99.3055L146.705 100.02L146.719 100.383C146.817 101.058 146.988 102.334 147.034 103.509C147.038 104.04 147.034 104.611 147.02 105.224C147.013 105.374 147.007 105.521 146.976 105.685C146.922 105.972 146.729 106.686 146.091 106.926C145.738 107.063 145.464 107.105 145.244 107.071C145.164 107.059 145.089 107.025 144.975 106.985C144.677 106.835 144.551 106.731 144.297 106.456C144.262 106.432 144.245 106.407 144.208 106.38C144.005 106.157 143.869 106.01 143.758 105.842L143.49 105.524C143.257 105.234 143.091 105.038 142.922 104.842C142.588 104.558 142.188 104.283 141.822 104.056C141.333 103.726 140.837 103.417 140.32 103.123L139.693 102.753C138.683 102.15 137.722 101.596 136.774 100.984C135.988 100.479 135.137 99.9009 134.088 99.1666L133.836 98.9768L133.764 98.9248C133.422 98.6803 133.119 98.4417 132.836 98.2062C132.287 97.76 131.795 97.2189 131.368 96.7695C131.178 96.5705 130.995 96.3506 130.829 96.1553C130.639 95.9563 130.452 95.7577 130.269 95.5378C129.863 95.0729 129.48 94.6116 129.102 94.1259L128.817 93.7865C128.554 93.4474 128.269 93.1081 128.006 92.7689C127.645 92.289 127.316 91.7482 127.115 91.3998C126.9 91.0274 126.712 90.7219 126.528 90.3951L126.365 90.0527L126.322 89.9612C126.248 89.8022 126.209 89.6894 126.145 89.5947L125.904 89.1335C125.69 88.7392 125.501 88.3268 125.314 87.9179C125.026 87.2578 124.701 86.4852 124.388 85.6517L124.342 85.5597L124.298 85.4682L124.271 85.4012L124.36 85.9016L124.365 85.9871C124.462 86.6804 124.536 87.3731 124.651 88.0692C124.841 89.3484 125.011 90.6274 125.177 91.9279C125.356 93.2711 125.495 94.5016 125.597 95.7042C125.715 96.8245 125.743 97.8713 125.774 99.3611C125.78 99.7639 125.79 100.149 125.797 100.551L125.804 100.722C125.828 101.47 125.83 102.233 125.834 102.975L125.834 103.527C125.849 103.658 125.867 103.787 125.861 103.915C125.85 103.976 125.855 104.061 125.819 104.14C125.828 104.205 125.817 104.269 125.822 104.354L125.864 104.678L125.924 105.004C125.981 105.249 126.043 105.469 126.119 105.713L126.229 106.113L126.254 106.202C126.432 106.889 126.614 107.551 126.818 108.22L126.845 108.287L126.885 108.4L126.993 108.693L127.12 109.115C127.317 109.698 127.517 110.281 127.693 110.858C127.794 111.194 127.92 111.509 128.021 111.845L128.086 112.046L128.105 112.153L128.134 112.223L128.174 112.333L128.227 112.492L128.305 112.737C128.458 113.228 128.608 113.738 128.737 114.245C128.811 114.514 128.879 114.797 128.974 115.069C129.075 115.402 129.163 115.692 129.213 115.976C129.36 116.614 129.505 117.249 129.627 117.906C130.113 120.229 129.922 122.79 129.711 125.027L129.676 125.423L129.648 125.57C129.484 127.114 129.306 128.719 128.925 130.208C128.743 130.858 128.508 131.565 128.244 132.331C127.971 133.03 127.608 133.758 127.342 134.31L127.248 134.487C126.978 135.061 126.711 135.613 126.42 136.183C126.291 136.439 126.165 136.674 126.015 136.927C125.89 137.162 125.74 137.415 125.61 137.671C125.318 138.263 124.986 138.827 124.722 139.251L124.689 139.33C124.385 139.858 124.117 140.303 123.87 140.754C123.809 140.87 123.769 140.971 123.687 141.084L123.505 141.394C123.351 141.669 123.196 141.962 123.038 142.258L122.812 142.709C122.622 143.063 122.428 143.434 122.245 143.767C122.001 144.197 121.758 144.624 121.515 145.054L121.389 145.289L121.325 145.407L121.271 145.484C120.967 146.008 120.666 146.536 120.379 147.085L120.279 147.28L120.218 147.399L120.126 147.661L119.936 148.033L119.875 148.131C119.738 148.426 119.597 148.744 119.442 149.04C119.435 149.079 119.41 149.098 119.402 149.14L119.256 149.372L119.203 149.448L119.11 149.604C119.037 149.784 118.933 150 118.711 150.22C118.386 150.531 117.931 150.67 117.513 150.605C117.216 150.559 116.917 150.409 116.697 150.162C116.409 149.841 116.314 149.361 116.238 149.007L116.22 148.879C116.115 148.354 116.008 147.828 115.907 147.282L115.885 147.172L115.848 146.934L115.757 146.43C115.677 146.101 115.63 145.688 115.6 145.197C115.575 144.895 115.545 144.617 115.499 144.312C115.379 143.53 115.232 142.892 115.063 142.272L115.038 142.18C114.991 142.11 114.991 142.11 114.995 142.089L114.929 141.89L114.906 141.802L114.679 141.151C114.489 140.632 114.305 140.095 114.118 139.557C113.961 139.087 113.803 138.617 113.646 138.147L113.764 138.165C113.541 137.835 113.41 137.432 113.249 136.983L113.131 136.625C112.987 136.198 112.863 135.777 112.74 135.334C112.614 134.909 112.528 134.494 112.428 134.055L112.406 133.945C112.201 133.065 112.091 132.134 112.014 130.892L112.012 130.807L112.007 130.721L112.13 130.825C111.878 128.346 111.993 125.755 112.523 123.144C112.922 121.105 113.683 118.89 114.852 116.356C115.022 115.999 115.191 115.643 115.357 115.289L115.389 115.231L115.559 114.874L115.731 114.499L115.765 114.416L115.797 114.358C116.043 113.803 116.341 113.193 116.748 112.556C116.87 112.34 117.008 112.151 117.144 111.958L117.25 111.827L117.306 111.751C117.441 111.581 117.551 111.428 117.641 111.273C118.007 110.736 118.346 110.236 118.66 109.754L118.716 109.678C118.891 109.388 119.034 109.175 119.169 109.004C119.299 108.855 119.427 108.705 119.561 108.538L119.618 108.462L119.75 108.077C119.86 107.925 119.975 107.751 120.064 107.595L120.153 107.462C120.267 107.288 120.352 107.154 120.434 107.038C120.577 106.827 120.739 106.62 120.879 106.406L121.103 106.08L121.217 105.909L121.273 105.833L121.392 105.638L121.441 105.583C121.555 105.409 121.612 105.333 121.666 105.257C121.885 104.971 122.098 104.709 122.328 104.446C122.491 104.239 122.612 104.026 122.755 103.812L122.852 103.617C122.917 103.498 122.974 103.401 123.034 103.306C123.024 103.135 123.024 102.922 123.018 102.729L123.017 102.622L123.014 102.198L123.016 101.752L123.004 101.603L122.998 101.41L122.997 101.304L122.995 100.986L122.985 100.602L122.984 100.284C122.981 99.7532 122.959 99.2193 122.955 98.6881C122.921 96.4568 122.651 94.2924 122.385 92.2135L122.209 90.745L122.151 90.2903C122.1 89.8993 122.052 89.5118 122.001 89.1209C121.904 88.5533 121.821 88.0098 121.741 87.448L121.699 87.1212L121.688 86.9719L121.651 86.7338L121.627 86.5385C121.5 85.5644 121.363 84.5448 121.223 83.5466C121.136 83.0244 121.045 82.5236 120.94 81.9988L120.909 81.8432L120.883 81.7544L120.86 81.6661C120.743 81.0765 120.633 80.4661 120.524 79.8526L120.4 79.0923L120.368 78.9398C120.218 78.0877 120.079 77.1964 119.911 76.3446C119.625 75.0255 119.287 73.6576 119.044 72.7721L119.009 72.6379L118.973 72.5067L118.951 72.3966L118.906 72.1981C118.8 71.7797 118.69 71.3796 118.587 70.9617C118.611 71.3673 118.567 71.8283 118.434 72.6554C118.318 73.2748 118.159 74.013 117.916 74.9925C117.742 75.5809 117.534 76.1639 117.318 76.7678C116.778 78.2319 116.104 79.6562 115.661 80.6047C115.08 81.852 114.437 83.1085 113.67 84.4746L113.609 84.5938C113.581 84.6302 113.552 84.6698 113.541 84.7308C113.042 85.6518 112.702 86.2771 112.323 86.8777C112.084 87.2832 111.803 87.6855 111.525 88.0882L111.24 88.5118C110.5 89.6275 109.764 90.8288 108.976 92.2136L108.668 92.7592C107.578 94.7751 106.747 96.8094 106.232 98.8079L106.11 99.2348L105.987 99.6835C105.976 99.7445 105.944 99.8023 105.932 99.8664L105.916 99.9488L105.88 100.028L105.832 100.19L105.78 100.352C105.687 100.739 105.591 101.041 105.226 101.346C104.909 101.617 104.502 101.723 104.105 101.661C103.905 101.63 103.699 101.532 103.535 101.422C103.231 101.187 103.119 100.915 103.048 100.646L103.025 100.539C102.863 99.9835 102.734 99.4737 102.623 98.9697L102.572 98.7075L102.372 97.9136L102.243 97.4038L102.208 97.2508C102.102 96.8293 101.999 96.4114 101.897 95.9716C101.753 95.3121 101.685 94.5793 101.625 94.0206C101.479 92.6195 101.489 91.1361 101.493 90.0315C101.493 89.2686 101.539 88.4689 101.609 87.5472L101.604 87.4616L101.619 87.3792L101.648 87.1075C101.668 86.7934 101.697 86.5217 101.713 86.2259C101.791 85.0293 101.898 83.9219 102.015 82.8569C102.167 81.6088 102.462 80.4647 102.796 79.1162L102.877 79.2136C102.918 78.6705 103.071 78.0789 103.289 77.3498C103.436 76.8829 103.637 76.3614 103.869 75.7633L103.909 75.6628C104.325 74.5404 104.898 73.314 105.665 71.9479L105.7 72.1009L105.761 71.7714C106.278 70.8531 106.614 70.268 106.98 69.7314C107.351 69.1548 107.739 68.6184 108.225 67.9937L108.523 67.5942C108.764 67.2925 108.988 66.9663 109.212 66.6431L109.404 66.3746L109.6 66.0879C109.739 65.896 109.877 65.704 110.015 65.5151C110.24 65.1888 110.481 64.8871 110.723 64.5636C110.967 64.2406 111.225 63.9635 111.627 63.5581C112.041 63.0918 112.43 62.6436 112.831 62.1531L112.965 61.9855L113.015 61.9274C113.28 61.6075 113.514 61.3268 113.713 61.0405C113.969 60.6564 114.227 60.2505 114.463 59.8602C114.555 59.705 114.645 59.5494 114.755 59.3969L114.787 59.3391L114.848 59.223L114.913 59.1043L115.084 58.8327C115.18 58.6592 115.278 58.4608 115.355 58.2593C115.414 58.0581 115.515 57.8414 115.669 57.567C115.425 56.3612 115.219 55.1644 115.058 54.163L114.975 53.6195C114.75 52.3099 114.526 50.9816 114.281 49.6719C114.212 49.2782 114.147 48.8662 114.075 48.4721L114.019 48.1243L113.954 47.7123L113.899 47.3427L113.87 47.1688C113.797 46.6895 113.736 46.2343 113.683 45.7582L113.666 45.5233C113.545 44.4244 113.37 43.0597 113.333 41.7166C113.259 39.6045 113.342 37.4102 113.591 35.2009C113.65 34.6575 113.707 34.1389 113.766 33.5955C113.669 33.7908 113.539 33.9401 113.425 34.1139L113.314 34.2663L113.012 34.6872C112.703 35.1259 112.376 35.5649 112.05 36.0009C111.669 36.5164 111.24 37.0651 110.699 37.6594C110.384 38.0343 110.035 38.3632 109.633 38.7655L109.256 39.1527C108.525 39.8901 107.808 40.6485 107.095 41.4075L106.255 42.2943C105.29 43.3125 104.323 44.3272 103.355 45.3449C102.522 46.1921 101.644 47.073 100.819 47.8774L100.742 47.9502L100.643 48.0416L100.523 48.1517L100.396 48.2795C99.2007 49.4315 98.0845 50.467 97.0775 51.3719L93.8955 54.1871C93.2589 54.7445 92.6207 55.3267 91.9968 55.93L91.7752 56.128L91.5035 56.3841L90.7106 57.1307C90.1163 57.6726 89.5283 58.1967 88.9403 58.7208L88.7182 58.9218L88.5984 59.0288C88.2575 59.315 87.9127 59.6225 87.5954 59.9123C87.2259 60.238 86.8395 60.5579 86.473 60.8841C86.4673 61.0119 86.4571 61.1799 86.4057 61.3414C86.27 61.7442 86.1343 62.147 86.0368 62.5557C85.6738 64.176 85.4336 65.9 85.2601 67.3801C85.1679 68.0848 85.1163 68.7989 85.051 69.4889L85.0163 69.8854C84.9453 70.7033 84.937 71.5089 84.938 72.3787C84.9392 72.4857 84.9484 72.5499 84.937 72.6109C84.9383 72.9282 84.9556 73.2731 84.9775 73.5936L84.9938 74.3811C84.9975 74.9122 85.064 75.4312 85.1099 75.9469L85.1312 76.2705C85.2403 77.4523 85.3626 78.8715 85.5129 80.2543C85.5513 80.5994 85.5898 80.9444 85.6459 81.2922C85.7376 82.1134 85.8552 83.0233 85.9115 83.9205L85.9485 84.7112L85.9593 84.8636C86.0181 85.9747 86.069 87.1286 86.065 88.252C86.0552 89.5032 85.9947 90.7026 85.8827 91.8531C85.7714 93.0007 85.544 94.2181 85.2322 95.548C84.6873 97.8182 83.9088 100.011 82.9657 102.113L82.7963 102.47C82.6234 102.845 82.4465 103.241 82.276 103.62L82.18 103.793C81.9736 104.251 81.7607 104.726 81.3828 105.114C81.1293 105.369 80.7143 105.518 80.3339 105.481L80.2545 105.469C80.0546 105.438 79.7832 105.352 79.6604 105.248C79.4188 105.019 79.381 104.994 79.2136 104.692C79.1032 104.505 79.0625 104.286 79.0213 104.069L79.0025 103.959C78.9767 103.87 78.9704 103.807 78.9446 103.718L78.9258 103.608L78.904 103.498C78.8633 103.278 78.8387 103.086 78.7941 102.888C78.4091 101.66 77.8626 100.536 77.3853 99.592C76.9948 98.8312 76.6249 98.0737 76.2414 97.292L75.8115 96.4184C75.2816 95.3189 74.8127 94.3136 74.4268 93.3181C74.0529 92.3715 73.7651 91.2876 73.5659 90.4906L73.3583 89.7394C73.0453 88.5637 72.8505 87.3058 72.6747 86.1734L72.6248 85.8893C72.4484 84.7599 72.3604 83.5783 72.3227 82.2569L72.3158 82.0675C72.2932 81.4266 72.2923 80.7672 72.3486 80.1417C72.4094 79.4918 72.4953 78.805 72.6121 78.0822C72.7391 77.4017 72.8838 76.724 73.0486 76.0683C73.1984 75.4762 73.4135 74.8754 73.7393 74.1191C74.0291 73.4419 74.3771 72.777 74.7007 72.1459L74.7583 72.0481L74.7349 72.1732C74.8867 71.8137 75.0939 71.466 75.277 71.1333L75.5246 70.682L75.6171 70.5268L75.5566 70.6242L75.4333 70.7337L75.2187 70.9108L75.0954 71.0204L75.0212 71.0936C74.4302 71.6173 73.7475 72.2114 73.1099 72.7906C71.3368 74.509 69.5951 76.3831 67.5722 78.6781L67.4198 78.846C66.5116 79.8698 65.7405 80.7265 64.9212 81.5978L64.1415 82.3872L64.0673 82.4605C63.3612 83.1798 62.5819 83.9505 61.9158 84.7795C61.3343 85.4961 60.7669 86.2338 60.171 87.011L60.1208 87.0691L60.0363 87.1816L59.28 88.1694C59.0637 88.4529 58.872 88.7183 58.6551 89.0048C58.7665 89.1697 58.8071 89.3895 58.8022 89.643C58.7697 89.9143 58.7779 90.2107 58.7992 90.5342C59.1529 93.4525 59.7257 95.959 60.5726 98.2129L60.4972 98.1792L60.619 98.3048L60.6418 98.3931L60.527 98.2466L60.8671 98.9367C61.1181 99.5691 61.3622 100.222 61.6133 100.855C62.1605 102.299 62.5266 103.417 62.7732 104.495C62.8665 104.87 62.9392 105.243 63.0354 105.619L63.1967 106.278C63.3078 106.785 63.4165 107.288 63.5315 107.774C64.0981 110.217 64.3638 112.845 64.2925 115.528C64.2272 117.725 63.8153 119.931 63.4409 121.612C63.3281 122.103 63.2295 122.534 63.0829 122.979C62.9432 123.403 62.7795 123.842 62.6192 124.263L62.5063 124.544C62.0738 125.645 61.6101 126.719 61.2524 127.533L61.1834 127.692C61.0435 127.987 60.9066 128.283 60.7936 128.564L60.5158 129.177C60.3669 129.537 60.194 129.912 60.0657 130.275C59.8615 130.818 59.4842 131.202 59.0319 131.323C58.8372 131.378 58.6498 131.393 58.4528 131.362C58.0353 131.297 57.6731 131.049 57.4759 130.68C57.3558 130.448 57.3186 130.21 57.2648 129.947L57.2087 129.599C57.1102 129.138 57.0324 128.68 56.9259 128.262C56.788 127.688 56.5781 127.062 56.3162 126.277C55.7964 125.009 55.2847 123.91 54.7394 122.892C54.0877 121.667 53.5913 120.275 53.1602 119.084C52.9429 118.498 52.7662 117.921 52.5705 117.316L52.4785 117.047L52.439 116.934C52.256 116.375 52.1153 115.93 51.9963 115.465C51.6993 114.317 51.5143 113.12 51.3607 112.079L51.3126 111.689C51.1923 110.907 51.0181 109.863 50.9269 108.828C50.8259 107.943 50.7776 107.003 50.7524 105.809C50.736 105.022 50.7476 104.198 50.7724 103.417L50.7752 103.288C50.7943 102.635 50.8779 101.863 51.0367 100.786L51.137 100.249L51.1849 99.8952L51.2116 99.7518C51.2578 99.5047 51.2839 99.2513 51.33 99.0041L50.9117 99.7053L50.3496 100.529L50.2069 100.742L50.0647 100.952L50.0151 101.007C49.2869 102.169 48.6335 103.254 47.9864 104.322C47.3609 105.371 46.7053 106.581 46.0011 107.938C45.1886 109.551 44.4338 111.196 43.7332 112.76L43.6967 112.842L43.6248 113.001C43.2134 113.891 42.8306 114.743 42.4267 115.593C42.1922 116.088 41.972 116.603 41.7375 117.097L41.705 117.158L41.673 117.216L41.6439 117.274L41.5361 117.512L41.2462 118.189L41.1812 118.326C41.1249 118.741 41.0651 119.159 40.9671 119.587C40.9398 119.733 40.8884 119.895 40.8617 120.038L40.8229 120.246C40.7887 120.429 40.7334 120.612 40.6987 120.798C40.6719 120.941 40.6445 121.088 40.6383 121.234C40.586 121.628 40.5547 122.006 40.5344 122.342C40.5264 122.595 40.5009 122.845 40.4753 123.096C40.4502 123.327 40.4247 123.578 40.4031 123.807C40.3493 124.646 40.3125 125.491 40.2969 126.336L40.2735 127.564C40.2335 128.766 40.1725 130.179 39.9938 131.573C39.8965 132.321 39.7541 133.084 39.6197 133.804L39.4425 134.753C39.3844 135.064 39.3268 135.373 39.2487 135.678C39.1546 136.068 39.0395 136.474 38.9254 136.858L38.747 137.49C38.5611 138.161 38.3781 138.704 38.1573 139.222L38.0883 139.381C37.6216 140.455 37.0899 141.666 36.4193 142.73C35.0856 144.833 33.2881 146.909 31.0771 148.899C30.8094 149.133 30.5387 149.368 30.275 149.581L30.1306 149.706C29.9547 149.87 29.7652 150.01 29.6168 150.157C29.4449 150.3 29.272 150.464 29.103 150.608L28.9055 150.791L28.6378 151.025L28.2404 151.388C27.7791 151.784 27.3185 152.177 26.8583 152.551C26.397 152.947 25.9574 153.325 25.5207 153.703L25.229 153.953L25.0851 154.059L24.9623 154.166L24.7934 154.309C24.6244 154.453 24.4765 154.58 24.3321 154.705C24.1848 154.83 24.0398 154.958 23.8925 155.083C23.4849 155.403 23.0984 155.723 22.6386 155.673L22.3799 155.633C22.2417 155.612 22.1046 155.568 21.9406 155.458C21.687 155.293 21.6064 155.174 21.4618 154.96C21.3069 154.704 21.2685 154.359 21.274 154.102C21.3025 153.852 21.3487 153.605 21.3834 153.419C21.4546 153.135 21.4894 152.949 21.5447 152.766C21.6188 152.482 21.6895 152.217 21.7437 151.927C21.8496 151.457 21.9345 151.002 22.0194 150.547C22.1679 149.428 22.2171 148.289 22.2382 147.187L22.2524 146.788L22.3065 145.396L22.3286 144.953L22.3365 144.7L22.3872 143.116C22.4234 142.485 22.4591 141.856 22.517 141.206L22.5477 140.831C22.5994 140.327 22.6329 139.823 22.7046 139.326C22.7974 138.618 22.9346 137.77 23.1752 136.919C23.3423 136.348 23.5499 135.787 23.7501 135.265L23.7895 135.168L23.8265 135.067C24.2783 133.862 24.7495 132.749 25.2699 131.727C25.529 131.215 25.788 130.703 26.0641 130.196C26.4363 129.532 26.8603 128.897 27.1588 128.498C27.7455 127.656 28.4796 126.901 29.0168 126.325C29.2673 126.069 29.5008 125.807 29.7343 125.545C30.377 124.841 31.0512 124.179 31.9018 123.463C32.1941 123.211 32.5024 122.985 32.8153 122.736L32.9101 122.665L33.0511 122.559L33.3388 122.33L33.4341 122.257C34.0347 121.779 34.6433 121.258 35.2427 120.673C35.6195 120.307 36.0522 119.951 36.4598 119.631L36.5586 119.54L37.3659 118.943C37.4361 118.891 37.4886 118.836 37.5588 118.784C37.7055 118.55 37.9201 118.373 38.1714 118.242L38.2188 118.102L38.2917 117.922L38.3317 117.821C38.4007 117.662 38.4686 117.525 38.5165 117.382C38.565 117.22 38.6289 117.104 38.6905 116.985L38.7378 116.845L39.0442 116.192C39.2661 115.652 39.5109 115.119 39.7734 114.588L39.8709 114.39L39.9429 114.231L40.0438 114.015L40.1733 113.759L40.2093 113.679L40.3758 113.322L40.7787 112.493L41.4399 111.026C41.7868 110.254 42.1371 109.48 42.5045 108.711C43.0574 107.5 43.7033 106.244 44.3846 104.993C44.8833 104.072 45.4306 103.118 46.1508 101.999C46.4111 101.594 46.6548 101.164 46.915 100.758C47.2683 100.179 47.6261 99.5751 47.9969 98.9985L48.0639 99.0937L48.0255 98.959L48.118 98.8038C48.5254 98.1449 48.974 97.4924 49.397 96.8799C48.5937 97.4554 47.7509 97.9179 46.7922 98.4504C45.7011 99.044 44.6122 99.5123 43.3252 100.053C42.1735 100.534 40.9195 100.996 39.6621 101.394C38.4641 101.782 37.2231 102.076 35.8641 102.355C34.6345 102.588 33.4256 102.824 32.1869 102.993L31.7044 103.066L31.2189 103.138L30.9653 103.183C30.3543 103.28 29.7924 103.34 29.227 103.403L28.7484 103.455L28.4777 103.479C28.2281 103.503 27.958 103.523 27.7084 103.548C27.4995 103.581 27.2715 103.586 27.0666 103.599L26.918 103.616C26.6502 103.641 26.3595 103.658 26.0854 103.701C25.166 103.812 24.2768 103.972 23.2004 104.163C22.7555 104.245 22.3946 104.314 22.0165 104.362L21.7424 104.405C21.3426 104.471 20.9611 104.538 20.558 104.623C19.4279 104.874 18.3291 105.168 17.267 105.493C16.9187 105.609 16.5704 105.724 16.2426 105.843L15.6334 106.043C15.3061 106.143 15.0657 106.232 14.795 106.256C14.6916 106.258 14.57 106.261 14.4701 106.246C14.0731 106.184 13.6903 105.933 13.5229 105.631C13.3423 105.286 13.2004 104.733 13.505 104.187C13.6386 103.91 13.8846 103.694 14.1072 103.474L14.1843 103.401L14.2865 103.291L14.4138 103.16C14.7991 102.733 15.1644 102.3 15.4618 101.923C15.7843 101.508 16.1113 101.069 16.4212 100.609L16.5097 100.475C16.9263 99.8801 17.2322 99.4409 17.5553 99.0232C19.0056 97.1699 20.8889 95.5094 23.4405 93.7862C24.258 93.2318 25.1288 92.7328 25.9549 92.2457L26.0948 92.1606L26.1616 92.127L26.76 91.7741L26.917 91.6949C27.9253 91.1073 28.9576 90.5046 30.0249 90.0549C31.3787 89.4801 32.7303 89.0306 34.231 88.5446C34.9276 88.3136 35.6786 88.132 36.2353 87.986L36.4301 87.9315C37.0525 87.7738 37.9953 87.5371 38.937 87.3223C39.5109 87.1978 40.0666 87.0737 40.6199 86.9461L40.8768 86.8824L40.9642 86.852C41.5204 86.7249 42.0938 86.6035 42.65 86.4764C43.2439 86.3582 43.8549 86.2615 44.4414 86.183L44.6528 86.153C45.2392 86.0745 45.8297 85.9747 46.4271 85.8539L46.4899 85.8417L46.5767 85.8143L46.8201 85.9369C47.6303 85.7456 48.3567 85.582 49.0512 85.4764C49.7902 85.3587 50.5057 85.2375 51.2413 85.1382C51.432 85.105 51.637 85.0928 51.8278 85.0597L51.9945 85.0416C52.3686 85.0149 52.705 84.9635 53.0419 84.909C53.2955 84.8636 53.5284 84.815 53.782 84.7696C54.0561 84.7274 54.3548 84.667 54.626 84.6243L54.8825 84.5794L55.1155 84.5308C55.14 84.5126 55.2234 84.5036 55.3062 84.4976C55.8173 84.3854 56.2798 84.3065 56.7693 84.213L57.3209 84.1102C57.7669 84.0067 58.1769 83.9009 58.5915 83.7549C58.745 83.6939 58.9015 83.6334 59.0591 83.5512L59.2127 83.4902C59.3001 83.4598 59.3869 83.4325 59.4742 83.4021C59.5434 83.372 59.6062 83.3598 59.6724 83.3293C60.0765 82.8174 60.4372 82.4088 60.8191 82.0002C61.2781 81.5189 61.7371 81.0376 62.1925 80.5588C62.7217 80.0256 63.2303 79.4892 63.7429 78.9314C64.3361 78.2825 64.9308 77.6088 65.524 76.9599L65.7785 76.6823L65.8316 76.6246C66.9458 75.3564 68.0555 74.1284 69.2417 72.9123C70.2053 71.9159 71.2802 70.874 72.5098 69.7493C72.7599 69.5118 73.0236 69.2985 73.2737 69.061C72.6947 69.3102 72.1054 69.517 71.4962 69.7175C70.43 70.0638 69.244 70.3883 67.7867 70.7555L67.464 70.831L67.5999 70.7673C66.2471 71.1099 64.8999 71.3246 63.5098 71.4291C62.5572 71.4916 61.5978 71.4933 60.6526 71.5162L60.5286 71.5157L59.5898 71.5207C58.8319 71.5287 58.1402 71.5061 57.4766 71.447C57.0105 71.4155 56.5341 71.3415 56.0784 71.2708L55.5021 71.1813C54.7258 71.0608 53.9565 70.9194 53.1877 70.7592L52.2224 70.5654L51.7701 70.4764C51.0801 70.3473 50.3667 70.2146 49.7008 70.0704C48.9776 69.8922 48.2254 69.7566 47.4943 69.6211L47.0014 69.5226C46.1321 69.3657 45.2798 69.2146 44.4066 69.079C44.2066 69.048 43.989 69.0142 43.7891 68.9832C43.0952 68.8754 42.5566 68.8107 42.0477 68.7976C41.2105 68.7932 40.4075 68.8161 39.617 68.885C39.4326 68.9003 39.2459 68.9121 39.0665 68.8843C39.0254 68.8779 39.0077 68.8751 38.9665 68.8688C38.4222 68.7215 38.1022 68.4583 37.9268 67.9884C37.7661 67.5364 37.8583 67.0421 38.1848 66.6061C38.4091 66.2799 38.811 66.088 39.1531 65.9088C39.6121 65.6378 40.0152 65.3424 40.4313 64.9612C40.6568 64.7419 40.8829 64.5195 41.1044 64.3216C41.5771 63.8643 42.0035 63.4439 42.4608 63.069C42.9991 62.6 43.5677 62.1797 44.1147 61.7779C45.1818 60.9891 46.3128 60.295 47.5291 59.6958C48.4928 59.2331 49.5777 58.7862 50.7346 58.3912C51.2777 58.2212 51.8374 58.0757 52.377 57.924L52.4638 57.8967C53.2604 57.6813 53.9382 57.551 54.5909 57.442C55.941 57.2277 57.0552 57.0616 58.2054 57.0266C58.4333 57.0212 58.6383 57.009 58.8638 57.0001L59.2173 56.9702C60.0449 56.9291 60.8936 56.8725 61.7274 56.8952L61.8285 56.8889C62.3573 56.9082 62.9696 56.9185 63.5841 57.0139L63.6841 57.0294C64.181 57.1065 64.7333 57.2111 65.4565 57.3893C66.1047 57.5307 66.777 57.6571 67.467 57.7862C68.0981 57.9061 68.7361 58.0051 69.3433 58.1402C69.6186 58.2049 69.891 58.2692 70.1703 58.3126C70.4845 58.3802 70.8186 58.454 71.1322 58.5247C71.5252 58.6076 71.9427 58.6725 72.3396 58.7341C72.5778 58.771 72.7954 58.8048 73.0336 58.8418C73.2541 58.876 73.4682 58.9281 73.7064 58.9651C74.02 59.0357 74.3541 59.1096 74.6717 59.1589L74.8922 59.1931C75.1098 59.2269 75.3068 59.2575 75.5233 59.3131L75.7997 59.356C75.9585 59.3806 76.1345 59.4268 76.2932 59.4514C76.5138 59.4856 76.7479 59.544 76.9655 59.5777C77.2409 59.6425 77.4967 59.6822 77.776 59.7255C78.1347 59.7812 78.4563 59.8092 78.7778 59.8371L78.8778 59.8526L79.1988 59.8836C79.4615 59.9024 79.7173 59.9421 79.98 59.9609C80.4221 60.0076 80.8573 60.0751 81.2822 60.1003C81.4656 60.1068 81.6524 60.0949 81.8397 60.0801C82.3108 60.0684 82.7437 60.0509 83.1858 60.0975C83.872 59.485 84.4846 58.9428 85.0931 58.4219C85.5298 58.0438 85.9694 57.6662 86.4091 57.2887L86.7755 56.9625C87.2648 56.5298 87.7746 56.1003 88.2638 55.6677C88.9711 55.0553 89.6859 54.4033 90.356 53.7633L90.4086 53.7086L91.3985 52.7823C92.0646 52.1635 92.7503 51.5698 93.4125 50.9725C93.779 50.6463 94.1684 50.3269 94.5389 49.9794L95.3204 49.2938C95.7634 48.8979 96.2207 48.5231 96.6477 48.0996C97.2637 47.539 97.8631 46.9539 98.459 46.3871L98.9596 45.8933L99.0864 45.7655C99.8593 45.0126 100.487 44.391 101.044 43.8183C100.356 44.1165 99.6392 44.3442 99.0093 44.5416C98.7026 44.6447 98.3995 44.7452 98.0934 44.8452C97.5709 45.0184 97.0661 45.1944 96.5264 45.3461C95.6636 45.592 94.759 45.8347 93.7334 46.0773L93.8408 46.0532C93.3503 46.1686 92.8569 46.2835 92.3846 46.3986C91.8273 46.5475 91.1843 46.702 90.507 46.8292C89.8714 46.944 89.2433 47.0349 88.6356 47.1133C87.4883 47.2303 86.2781 47.3595 85.0611 47.4281C83.7178 47.4927 82.4997 47.4543 81.3436 47.2937C81.1643 47.2659 80.9673 47.2353 80.7879 47.2074C79.7941 47.0532 78.8076 46.8592 77.8424 46.6654L77.7042 46.644C76.7971 46.4623 75.8319 46.2685 74.902 45.9986L75.0813 46.0265C74.4204 45.8391 73.8109 45.7005 73.2586 45.5959C72.9029 45.5407 72.5481 45.4637 72.1894 45.408C71.8924 45.3619 71.5749 45.3126 71.2819 45.2451L70.982 45.1986C70.4851 45.1214 70.0047 45.0689 69.4788 45.05L69.3542 45.0526C69.0087 45.0398 68.6872 45.0119 68.345 44.9808C67.9481 44.9191 67.6201 44.6987 67.4281 44.4146C67.0915 43.9165 67.1917 43.3795 67.343 43.023C67.4673 42.6813 67.7978 42.4343 68.0645 42.2214C68.254 42.0813 68.423 41.938 68.6125 41.7979C68.8512 41.6214 69.0904 41.4262 69.3291 41.2497C69.5226 41.0883 69.7155 40.9298 69.9091 40.7684C70.2254 40.5004 70.5176 40.2475 70.8339 39.9795L71.386 39.5345C71.6743 39.303 71.9626 39.0715 72.2509 38.8399C73.2169 38.0574 73.979 37.4756 74.7052 36.9729C75.6199 36.352 76.5602 35.6911 77.5399 35.143C78.5186 34.6168 79.5281 34.1361 80.5674 33.7229C81.3177 33.4155 82.1874 33.1486 83.2376 32.8878L83.7075 32.7692C84.5698 32.542 85.4498 32.3176 86.3178 32.1572C86.7598 32.0751 87.2207 32.021 87.6655 31.9394L87.7906 31.918C88.1059 31.8822 88.4222 31.8245 88.7375 31.7887C88.9665 31.7614 89.1749 31.731 89.4074 31.7012C89.8271 31.6407 90.268 31.5804 90.7009 31.5629C91.0926 31.5389 91.4764 31.5577 91.8677 31.5525L92.0681 31.5647L92.9059 31.5661C93.5633 31.5614 94.1972 31.553 94.8477 31.5692L94.9271 31.5816C94.9477 31.5848 94.9477 31.5848 94.9683 31.588C96.9609 31.643 98.9314 31.93 100.841 32.2044L101.959 32.3561C102.816 32.4671 103.675 32.5816 104.511 32.6894L104.874 32.7237L105.416 32.7859C105.975 32.8539 106.531 32.9401 107.119 32.9655C107.486 32.9597 107.877 32.9576 108.244 32.9487C108.677 32.9311 109.11 32.9136 109.556 32.9419C109.923 32.9361 110.301 32.8881 110.659 32.8368L110.867 32.8064L111.079 32.7733C111.331 32.4106 111.601 32.0506 111.875 31.6881C112.393 30.9837 112.94 30.2428 113.457 29.4533C113.896 28.7366 114.338 28.0204 114.778 27.3037L115.16 26.6817C115.428 26.2366 115.654 25.7851 115.902 25.3338L115.991 25.1781L116.027 25.099C116.254 24.6475 116.484 24.1934 116.749 23.7478C117.414 22.5984 117.876 21.7596 118.337 20.8327C118.813 19.8234 119.217 18.7433 119.562 17.8833L119.606 17.7614L119.638 17.7035C119.883 16.831 120.608 16.5605 121.181 16.6495Z" fill="#E1EDDE" style="fill:#E1EDDE;fill:color(display-p3 0.8824 0.9292 0.8711);fill-opacity:1;"/>
</g>
</g>
</svg>
