<svg width="40" height="40" viewBox="0 0 40 40" fill="none" xmlns="http://www.w3.org/2000/svg">
<g id="4">
<rect id="BG" x="0.194092" width="39.398" height="39.398" rx="19.699" fill="#9A5CF5" style="fill:#9A5CF5;fill:color(display-p3 0.6039 0.3608 0.9608);fill-opacity:1;"/>
<g id="logo-linkedin 1">
<g id="Group">
<path id="Vector" d="M27.0608 12H12.3274C12.0268 12 11.7386 12.1194 11.526 12.3319C11.3135 12.5445 11.1941 12.8328 11.1941 13.1333V27.8667C11.1941 28.1672 11.3135 28.4555 11.526 28.6681C11.7386 28.8806 12.0268 29 12.3274 29H27.0608C27.3613 29 27.6496 28.8806 27.8621 28.6681C28.0747 28.4555 28.1941 28.1672 28.1941 27.8667V13.1333C28.1941 12.8328 28.0747 12.5445 27.8621 12.3319C27.6496 12.1194 27.3613 12 27.0608 12ZM16.2301 26.5033H13.6727V18.375H16.2301V26.5033ZM14.9511 17.2592C14.6571 17.2583 14.3699 17.1703 14.1259 17.0063C13.8819 16.8424 13.6919 16.6097 13.5801 16.3378C13.4682 16.066 13.4394 15.767 13.4973 15.4788C13.5552 15.1905 13.6972 14.9259 13.9054 14.7183C14.1136 14.5107 14.3787 14.3695 14.6671 14.3125C14.9555 14.2555 15.2544 14.2852 15.5259 14.3979C15.7975 14.5106 16.0295 14.7013 16.1927 14.9458C16.356 15.1903 16.4431 15.4777 16.4431 15.7717C16.4432 15.9675 16.4046 16.1613 16.3296 16.3421C16.2546 16.5229 16.1446 16.6871 16.006 16.8253C15.8674 16.9635 15.7028 17.073 15.5218 17.1475C15.3408 17.2219 15.1468 17.2599 14.9511 17.2592ZM25.7127 26.5033H23.2074V22.5717C23.2074 21.6158 23.2074 20.4467 21.8758 20.4467C20.5441 20.4467 20.3837 21.4565 20.3837 22.5185V26.5565H17.8808V18.375H20.2245V19.4908H20.2778C20.5195 19.0729 20.8702 18.7285 21.2926 18.4945C21.7149 18.2606 22.1928 18.1458 22.6753 18.1625C25.2327 18.1625 25.7121 19.8625 25.7121 22.0408L25.7127 26.5033Z" fill="white" style="fill:white;fill-opacity:1;"/>
</g>
</g>
</g>
</svg>
