<svg width="13" height="13" viewBox="0 0 13 13" fill="none" xmlns="http://www.w3.org/2000/svg">
<g id="Icon" clip-path="url(#clip0_23_5790)">
<path id="Vector" d="M6.09685 0.0559082C3.54625 0.0559082 1.47119 2.13097 1.47119 4.68157C1.47119 5.498 1.6869 6.30067 2.09497 7.00278C2.1901 7.16647 2.29645 7.32599 2.4111 7.47691L5.89587 12.1393H6.29781L9.78261 7.47694C9.89724 7.32599 10.0036 7.1665 10.0987 7.0028C10.5068 6.30067 10.7225 5.498 10.7225 4.68157C10.7225 2.13097 8.64746 0.0559082 6.09685 0.0559082ZM6.09685 6.21559C5.251 6.21559 4.56283 5.52743 4.56283 4.68157C4.56283 3.83571 5.251 3.14755 6.09685 3.14755C6.94271 3.14755 7.63088 3.83571 7.63088 4.68157C7.63088 5.52743 6.94271 6.21559 6.09685 6.21559Z" fill="#2B7D2D" style="fill:#2B7D2D;fill:color(display-p3 0.1686 0.4902 0.1765);fill-opacity:1;"/>
</g>
<defs>
<clipPath id="clip0_23_5790">
<rect width="12.0834" height="12.0834" fill="white" style="fill:white;fill-opacity:1;" transform="translate(0.0556641 0.0557861)"/>
</clipPath>
</defs>
</svg>
