<svg width="13" height="13" viewBox="0 0 13 13" fill="none" xmlns="http://www.w3.org/2000/svg">
<g id="Message">
<g id="Iconly/Bold/Message">
<g id="Message_2">
<path id="Vector" d="M8.58389 1.56555C9.25905 1.56555 9.90853 1.83239 10.3863 2.3112C10.8646 2.78899 11.132 3.43344 11.132 4.10809V8.08553C11.132 9.49022 9.98909 10.6281 8.58389 10.6281H3.61008C2.20488 10.6281 1.0625 9.49022 1.0625 8.08553V4.10809C1.0625 2.7034 2.19985 1.56555 3.61008 1.56555H8.58389ZM9.15332 4.18361C9.04759 4.17808 8.9469 4.21382 8.87087 4.28431L6.60071 6.09681C6.30869 6.33898 5.89031 6.33898 5.59376 6.09681L3.32813 4.28431C3.17155 4.16851 2.95506 4.18361 2.82466 4.31955C2.68872 4.45549 2.67362 4.67198 2.78891 4.82303L2.85487 4.88848L5.14567 6.67581C5.42762 6.89734 5.76947 7.01817 6.12744 7.01817C6.48441 7.01817 6.83231 6.89734 7.11375 6.67581L9.38492 4.85827L9.4252 4.81799C9.54553 4.67198 9.54553 4.46052 9.41966 4.31452C9.34968 4.2395 9.25351 4.19368 9.15332 4.18361Z" fill="#2B7D2D" style="fill:#2B7D2D;fill:color(display-p3 0.1686 0.4902 0.1765);fill-opacity:1;"/>
</g>
</g>
</g>
</svg>
