<svg width="25" height="17" viewBox="0 0 25 17" fill="none" xmlns="http://www.w3.org/2000/svg">
<g id="Group">
<path id="Vector" d="M22.5 0.5H2.5C1.39543 0.5 0.5 1.39543 0.5 2.5V14.5C0.5 15.6046 1.39543 16.5 2.5 16.5H22.5C23.6046 16.5 24.5 15.6046 24.5 14.5V2.5C24.5 1.39543 23.6046 0.5 22.5 0.5Z" fill="#252525" style="fill:#252525;fill:color(display-p3 0.1451 0.1451 0.1451);fill-opacity:1;"/>
<path id="Vector_2" d="M9.5 13.5C12.2614 13.5 14.5 11.2614 14.5 8.5C14.5 5.73858 12.2614 3.5 9.5 3.5C6.73858 3.5 4.5 5.73858 4.5 8.5C4.5 11.2614 6.73858 13.5 9.5 13.5Z" fill="#EB001B" style="fill:#EB001B;fill:color(display-p3 0.9216 0.0000 0.1059);fill-opacity:1;"/>
<path id="Vector_3" d="M15.5 13.5C18.2614 13.5 20.5 11.2614 20.5 8.5C20.5 5.73858 18.2614 3.5 15.5 3.5C12.7386 3.5 10.5 5.73858 10.5 8.5C10.5 11.2614 12.7386 13.5 15.5 13.5Z" fill="#F79E1B" style="fill:#F79E1B;fill:color(display-p3 0.9686 0.6196 0.1059);fill-opacity:1;"/>
<path id="Vector_4" fill-rule="evenodd" clip-rule="evenodd" d="M12.5 4.49951C13.7144 5.41172 14.5 6.86406 14.5 8.49988C14.5 10.1357 13.7144 11.588 12.5 12.5002C11.2856 11.588 10.5 10.1357 10.5 8.49988C10.5 6.86406 11.2856 5.41172 12.5 4.49951Z" fill="#FF5F00" style="fill:#FF5F00;fill:color(display-p3 1.0000 0.3725 0.0000);fill-opacity:1;"/>
</g>
</svg>
