<svg width="81" height="47" viewBox="0 0 81 47" fill="none" xmlns="http://www.w3.org/2000/svg">
<g id="Clip path group">
<mask id="mask0_23_14164" style="mask-type:luminance" maskUnits="userSpaceOnUse" x="0" y="0" width="81" height="47">
<g id="svg1248822778_8729_clip0_14_206">
<path id="Vector" d="M80.4902 0.818359H0.490234V46.8184H80.4902V0.818359Z" fill="white" style="fill:white;fill-opacity:1;"/>
</g>
</mask>
<g mask="url(#mask0_23_14164)">
<g id="Group">
<g id="Mask group">
<mask id="mask1_23_14164" style="mask-type:luminance" maskUnits="userSpaceOnUse" x="0" y="0" width="81" height="47">
<g id="Group_2">
<path id="Vector_2" d="M80.4902 0.818359H0.490234V46.8184H80.4902V0.818359Z" fill="white" style="fill:white;fill-opacity:1;"/>
</g>
</mask>
<g mask="url(#mask1_23_14164)">
<g id="Group_3">
<path id="Vector_3" d="M71.1363 0.818359H9.84417C4.67814 0.818359 0.490234 5.00626 0.490234 10.1723V37.4644C0.490234 42.6305 4.67814 46.8184 9.84417 46.8184H71.1363C76.3023 46.8184 80.4902 42.6305 80.4902 37.4644V10.1723C80.4902 5.00626 76.3023 0.818359 71.1363 0.818359Z" fill="#F0F0F0" style="fill:#F0F0F0;fill:color(display-p3 0.9412 0.9412 0.9412);fill-opacity:1;"/>
<path id="Vector_4" fill-rule="evenodd" clip-rule="evenodd" d="M21.5284 17.0559C23.1546 17.0559 24.6552 17.9511 24.4499 20.182C24.201 22.8333 22.8013 24.3004 20.5927 24.3067H18.6629C18.3854 24.3067 18.2511 24.5365 18.1789 25.0074L17.8056 27.4151C17.7496 27.7787 17.5655 27.958 17.2942 27.958H15.4988C15.2126 27.958 15.1131 27.7724 15.1765 27.357L16.6584 17.7074C16.7318 17.2327 16.9073 17.0559 17.227 17.0559H21.5247H21.5284ZM18.6044 22.2223H20.0664C20.9809 22.1869 21.5881 21.5443 21.6491 20.3853C21.6864 19.6694 21.2099 19.1568 20.4521 19.1606L19.076 19.1669L18.6044 22.2223ZM29.3311 27.2194C29.4953 27.0679 29.662 26.9896 29.6384 27.1765L29.5799 27.6234C29.5501 27.857 29.6409 27.9807 29.8549 27.9807H31.45C31.7188 27.9807 31.8494 27.8709 31.9154 27.4492L32.8983 21.1895C32.9481 20.8751 32.8722 20.7211 32.637 20.7211H30.8827C30.7246 20.7211 30.6475 20.8107 30.6064 21.0557L30.5417 21.4408C30.5081 21.6415 30.4173 21.6769 30.3327 21.4748C30.0353 20.7602 29.2763 20.4396 28.2175 20.4648C25.7576 20.5166 24.099 22.4117 23.9211 24.8408C23.7842 26.7195 25.1106 28.1954 26.86 28.1954C28.1291 28.1954 28.6965 27.8166 29.3361 27.2232L29.3311 27.2194ZM27.9948 26.2561C26.9359 26.2561 26.1981 25.3988 26.3511 24.3484C26.5041 23.298 27.4946 22.4407 28.5534 22.4407C29.6123 22.4407 30.3501 23.298 30.1971 24.3484C30.044 25.3988 29.0549 26.2561 27.9948 26.2561ZM36.0201 20.7009H34.4026C34.0692 20.7009 33.9335 20.9534 34.0393 21.264L36.0475 27.2308L34.0779 30.0702C33.9124 30.3076 34.0406 30.5235 34.2732 30.5235H36.0911C36.197 30.5359 36.3043 30.5172 36.4 30.4695C36.4957 30.4218 36.5759 30.3472 36.6311 30.2546L42.8075 21.2653C42.9979 20.9888 42.9083 20.6984 42.596 20.6984H40.8752C40.5803 20.6984 40.4621 20.8171 40.2929 21.0658L37.7173 24.8534L36.5664 21.0569C36.4992 20.8272 36.3312 20.7009 36.0214 20.7009H36.0201Z" fill="#5B5B5B" style="fill:#5B5B5B;fill:color(display-p3 0.3569 0.3569 0.3569);fill-opacity:1;"/>
<path id="Vector_5" fill-rule="evenodd" clip-rule="evenodd" d="M49.2342 17.0565C50.8604 17.0565 52.361 17.9517 52.1557 20.1826C51.9068 22.8339 50.5071 24.301 48.2985 24.3073H46.3699C46.0925 24.3073 45.9581 24.5371 45.8859 25.008L45.5127 27.4157C45.4567 27.7793 45.2725 27.9586 45.0013 27.9586H43.2058C42.9196 27.9586 42.8201 27.773 42.8836 27.3576L44.3679 17.7055C44.4414 17.2307 44.6168 17.054 44.9366 17.054H49.2342V17.0565ZM46.3102 22.2228H47.7722C48.6867 22.1875 49.2939 21.5449 49.3549 20.3858C49.3922 19.67 48.9157 19.1574 48.1579 19.1612L46.7818 19.1675L46.3102 22.2228ZM57.0369 27.22C57.2011 27.0685 57.3678 26.9902 57.3442 27.1771L57.2857 27.624C57.2559 27.8576 57.3467 27.9813 57.5607 27.9813H59.1558C59.4246 27.9813 59.5552 27.8715 59.6212 27.4498L60.6041 21.1901C60.6539 20.8757 60.578 20.7217 60.3428 20.7217H58.5909C58.4329 20.7217 58.3558 20.8113 58.3147 21.0563L58.25 21.4413C58.2164 21.6421 58.1256 21.6774 58.041 21.4754C57.7436 20.7608 56.9846 20.4401 55.9258 20.4654C53.4659 20.5171 51.8073 22.4122 51.6294 24.8414C51.4925 26.72 52.8189 28.1959 54.5683 28.1959C55.8374 28.1959 56.4048 27.8172 57.0443 27.2238L57.0369 27.22ZM55.7018 26.2567C54.6429 26.2567 53.9051 25.3994 54.0581 24.349C54.2112 23.2985 55.2016 22.4413 56.2605 22.4413C57.3193 22.4413 58.0571 23.2985 57.9041 24.349C57.7511 25.3994 56.7606 26.2567 55.7018 26.2567ZM63.059 27.9914H61.2175C61.1855 27.9929 61.1536 27.9871 61.124 27.9746C61.0944 27.9621 61.0679 27.9431 61.0464 27.9189C61.0248 27.8948 61.0088 27.8662 60.9995 27.8351C60.9902 27.8039 60.9877 27.7711 60.9923 27.7389L62.6098 17.3406C62.6253 17.2696 62.6639 17.206 62.7195 17.1602C62.7751 17.1144 62.8443 17.0889 62.9159 17.0881H64.7574C64.7894 17.0866 64.8214 17.0924 64.851 17.1049C64.8806 17.1174 64.9071 17.1364 64.9286 17.1605C64.9501 17.1847 64.9661 17.2133 64.9754 17.2444C64.9848 17.2756 64.9872 17.3084 64.9826 17.3406L63.3651 27.7389C63.3502 27.8103 63.3117 27.8745 63.2561 27.9208C63.2005 27.9672 63.131 27.993 63.059 27.9939V27.9914Z" fill="#393939" style="fill:#393939;fill:color(display-p3 0.2235 0.2235 0.2235);fill-opacity:1;"/>
</g>
</g>
</g>
</g>
</g>
</g>
</svg>
