<svg width="64" height="64" viewBox="0 0 64 64" fill="none" xmlns="http://www.w3.org/2000/svg">
<g id="quote (1) 1">
<g id="Group">
<path id="Vector" d="M13.2 38.48C11.88 41.8 9.80004 45.08 7.02002 48.24C6.14002 49.24 6.02002 50.68 6.74 51.8C7.30006 52.68 8.21998 53.16 9.21998 53.16C9.5 53.16 9.78004 53.1401 10.0601 53.04C15.9399 51.32 29.6801 45.22 30.0601 25.66C30.2 18.12 24.6801 11.6401 17.5 10.9001C13.52 10.5 9.56006 11.8 6.62 14.44C3.68006 17.1 2 20.9001 2 24.86C2 31.46 6.68006 37.24 13.2 38.48Z" fill="#9A5CF5" style="fill:#9A5CF5;fill:color(display-p3 0.6039 0.3608 0.9608);fill-opacity:1;"/>
<path id="Vector_2" d="M49.42 10.9001C45.46 10.5 41.5 11.8 38.5601 14.44C35.62 17.1 33.9399 20.9001 33.9399 24.86C33.9399 31.46 38.62 37.24 45.14 38.48C43.82 41.8 41.74 45.08 38.96 48.24C38.08 49.24 37.96 50.68 38.6801 51.8C39.24 52.68 40.16 53.1599 41.16 53.1599C41.4399 53.1599 41.72 53.14 42 53.0399C47.88 51.32 61.62 45.22 62 25.6599V25.38C62 17.96 56.54 11.6401 49.42 10.9001Z" fill="#9A5CF5" style="fill:#9A5CF5;fill:color(display-p3 0.6039 0.3608 0.9608);fill-opacity:1;"/>
</g>
</g>
</svg>
