<svg width="20" height="21" viewBox="0 0 20 21" fill="none" xmlns="http://www.w3.org/2000/svg">
<g id="arrow 1" clip-path="url(#clip0_23_5878)">
<g id="Group">
<g id="Group_2">
<path id="Vector" d="M1.20211 8.99411C1.28395 8.98083 1.36676 8.9747 1.44963 8.97577H15.5592L15.2516 8.83268C14.9508 8.69034 14.6772 8.49662 14.4431 8.26028L10.4864 4.30359C9.96527 3.80615 9.87771 3.00591 10.2789 2.40753C10.7458 1.76989 11.6412 1.63144 12.2789 2.09835C12.3304 2.13609 12.3793 2.17723 12.4254 2.2215L19.5803 9.37645C20.1395 9.93498 20.14 10.841 19.5814 11.4002C19.5811 11.4005 19.5807 11.4009 19.5803 11.4013L12.4254 18.5562C11.8658 19.1143 10.9597 19.113 10.4016 18.5534C10.3577 18.5094 10.3167 18.4625 10.2789 18.4131C9.87771 17.8148 9.96527 17.0145 10.4864 16.5171L14.4359 12.5532C14.6459 12.3431 14.8872 12.1668 15.1514 12.0309L15.5807 11.8378H1.52838C0.797363 11.8649 0.156012 11.3543 0.0186806 10.6357C-0.107826 9.85561 0.421997 9.12066 1.20211 8.99411Z" fill="#9A5CF5" style="fill:#9A5CF5;fill:color(display-p3 0.6039 0.3608 0.9608);fill-opacity:1;"/>
</g>
</g>
</g>
<defs>
<clipPath id="clip0_23_5878">
<rect width="20" height="20" fill="white" style="fill:white;fill-opacity:1;" transform="matrix(-1 0 0 1 20 0.397949)"/>
</clipPath>
</defs>
</svg>
