<svg width="19" height="20" viewBox="0 0 19 20" fill="none" xmlns="http://www.w3.org/2000/svg">
<g id="svg739991091_1180" clip-path="url(#clip0_23_1981)">
<path id="Vector" d="M7.73589 17.4959C7.57989 17.4959 7.44189 17.4569 7.32189 17.3789C7.20189 17.3009 7.11489 17.1929 7.06089 17.0549C7.00689 16.9169 6.99489 16.7759 7.02489 16.6319C7.05489 16.4879 7.11789 16.3679 7.21389 16.2719L12.7939 10.6739L7.21389 5.09394C7.14189 5.02194 7.08789 4.94094 7.05189 4.85094C7.01589 4.76094 6.99789 4.66794 6.99789 4.57194C6.99789 4.47594 7.01589 4.38594 7.05189 4.30194C7.08789 4.21794 7.14189 4.13994 7.21389 4.06794C7.28589 3.99594 7.36689 3.94194 7.45689 3.90594C7.54689 3.86994 7.63089 3.85194 7.70889 3.85194C7.78689 3.85194 7.88589 3.87594 8.00589 3.92394C8.08989 3.95994 8.16789 4.01394 8.23989 4.08594L14.3239 10.1699C14.4679 10.3139 14.5399 10.4849 14.5399 10.6829C14.5399 10.8809 14.4679 11.0519 14.3239 11.1959L8.23989 17.2799C8.09589 17.4239 7.92789 17.4959 7.73589 17.4959ZM13.8199 11.3939H0.859893C0.655893 11.3939 0.484893 11.3249 0.346893 11.1869C0.208893 11.0489 0.139893 10.8809 0.139893 10.6829C0.139893 10.4849 0.211893 10.3139 0.355893 10.1699C0.499893 10.0259 0.667893 9.95394 0.859893 9.95394H13.8199C14.0119 9.95394 14.1799 10.0259 14.3239 10.1699C14.4679 10.3139 14.5399 10.4849 14.5399 10.6829C14.5399 10.8809 14.4709 11.0489 14.3329 11.1869C14.1949 11.3249 14.0239 11.3939 13.8199 11.3939Z" fill="#0E0E0E" style="fill:#0E0E0E;fill:color(display-p3 0.0549 0.0549 0.0549);fill-opacity:1;"/>
</g>
<defs>
<clipPath id="clip0_23_1981">
<rect width="18" height="19" fill="white" style="fill:white;fill-opacity:1;" transform="translate(0.139893 0.899994)"/>
</clipPath>
</defs>
</svg>
