<?xml version="1.0" standalone="no"?>
<!DOCTYPE svg PUBLIC "-//W3C//DTD SVG 20010904//EN"
 "http://www.w3.org/TR/2001/REC-SVG-20010904/DTD/svg10.dtd">
<svg version="1.0" xmlns="http://www.w3.org/2000/svg"
 width="41.000000pt" height="40.000000pt" viewBox="0 0 41.000000 40.000000"
 preserveAspectRatio="xMidYMid meet">

<g transform="translate(0.000000,40.000000) scale(0.100000,-0.100000)"
fill="#000000" stroke="none">
<path d="M281 339 c-49 -77 -52 -115 -15 -153 36 -35 77 -34 115 3 16 16 29
40 29 53 0 21 -56 128 -80 152 -5 5 -26 -18 -49 -55z m78 -17 c36 -56 40 -101
11 -127 -29 -26 -70 -22 -98 10 -17 20 -22 35 -17 53 6 23 61 112 69 112 2 0
18 -22 35 -48z"/>
<path d="M360 250 c0 -23 -5 -33 -20 -37 -23 -6 -27 -23 -6 -23 31 0 60 70 36
85 -6 4 -10 -7 -10 -25z"/>
<path d="M130 179 c-14 -4 -41 -8 -60 -8 -59 -2 -63 -9 -44 -80 18 -62 18 -63
48 -57 17 4 33 11 34 16 6 16 30 11 70 -14 60 -38 77 -39 150 -16 80 27 86 31
77 60 -6 20 -11 21 -56 15 -32 -4 -49 -3 -49 4 0 9 -96 71 -130 82 -8 3 -26 2
-40 -2z m97 -44 c34 -20 63 -40 63 -45 0 -19 -18 -18 -58 5 -23 13 -42 20 -42
15 0 -4 17 -18 37 -30 35 -20 41 -21 95 -9 32 6 62 9 66 5 12 -13 -28 -35 -86
-47 -52 -12 -57 -11 -102 14 -26 15 -57 27 -69 27 -15 0 -22 8 -27 35 -9 48
-8 49 18 57 37 10 38 10 105 -27z m-140 -27 c13 -47 10 -58 -16 -58 -14 0 -22
12 -30 44 -14 55 -14 59 -1 51 6 -3 10 -15 10 -26 0 -10 5 -19 11 -19 7 0 8
12 4 33 -10 44 7 25 22 -25z"/>
</g>
</svg>
