<svg width="107" height="21" viewBox="0 0 107 21" fill="none" xmlns="http://www.w3.org/2000/svg">
<g id="stars-5 1" clip-path="url(#clip0_23_8576)">
<g id="Trustpilot ratings 5star RGB">
<g id="Group">
<path id="Rectangle path" d="M20 0.389893H0V20.3899H20V0.389893Z" fill="#219653" style="fill:#219653;fill:color(display-p3 0.1294 0.5882 0.3255);fill-opacity:1;"/>
<path id="Rectangle path_2" d="M41.6667 0.389893H21.6667V20.3899H41.6667V0.389893Z" fill="#219653" style="fill:#219653;fill:color(display-p3 0.1294 0.5882 0.3255);fill-opacity:1;"/>
<path id="Rectangle path_3" d="M63.3333 0.389893H43.3333V20.3899H63.3333V0.389893Z" fill="#219653" style="fill:#219653;fill:color(display-p3 0.1294 0.5882 0.3255);fill-opacity:1;"/>
<path id="Rectangle path_4" d="M85 0.389893H65V20.3899H85V0.389893Z" fill="#219653" style="fill:#219653;fill:color(display-p3 0.1294 0.5882 0.3255);fill-opacity:1;"/>
<path id="Rectangle path_5" d="M106.667 0.389893H86.6667V20.3899H106.667V0.389893Z" fill="#219653" style="fill:#219653;fill:color(display-p3 0.1294 0.5882 0.3255);fill-opacity:1;"/>
<path id="Shape" d="M9.99976 13.8688L13.0414 13.098L14.3123 17.0147L9.99976 13.8688ZM16.9998 8.80632H11.6456L9.99976 3.76465L8.35392 8.80632H2.99976L7.33309 11.9313L5.68726 16.973L10.0206 13.848L12.6873 11.9313L16.9998 8.80632Z" fill="white" style="fill:white;fill-opacity:1;"/>
<path id="Shape_2" d="M31.6665 13.8688L34.7082 13.098L35.979 17.0147L31.6665 13.8688ZM38.6665 8.80632H33.3123L31.6665 3.76465L30.0207 8.80632H24.6665L28.9998 11.9313L27.354 16.973L31.6873 13.848L34.354 11.9313L38.6665 8.80632Z" fill="white" style="fill:white;fill-opacity:1;"/>
<path id="Shape_3" d="M53.333 13.8688L56.3747 13.098L57.6455 17.0147L53.333 13.8688ZM60.333 8.80632H54.9788L53.333 3.76465L51.6872 8.80632H46.333L50.6663 11.9313L49.0205 16.973L53.3538 13.848L56.0205 11.9313L60.333 8.80632Z" fill="white" style="fill:white;fill-opacity:1;"/>
<path id="Shape_4" d="M74.9998 13.8688L78.0414 13.098L79.3123 17.0147L74.9998 13.8688ZM81.9998 8.80632H76.6456L74.9998 3.76465L73.3539 8.80632H67.9998L72.3331 11.9313L70.6873 16.973L75.0206 13.848L77.6873 11.9313L81.9998 8.80632Z" fill="white" style="fill:white;fill-opacity:1;"/>
<path id="Shape_5" d="M96.6665 13.8688L99.7082 13.098L100.979 17.0147L96.6665 13.8688ZM103.667 8.80632H98.3123L96.6665 3.76465L95.0207 8.80632H89.6665L93.9998 11.9313L92.354 16.973L96.6873 13.848L99.354 11.9313L103.667 8.80632Z" fill="white" style="fill:white;fill-opacity:1;"/>
</g>
</g>
</g>
<defs>
<clipPath id="clip0_23_8576">
<rect width="106.667" height="20" fill="white" style="fill:white;fill-opacity:1;" transform="translate(0 0.389893)"/>
</clipPath>
</defs>
</svg>
