<svg width="81" height="47" viewBox="0 0 81 47" fill="none" xmlns="http://www.w3.org/2000/svg">
<g id="Clip path group">
<mask id="mask0_23_14175" style="mask-type:luminance" maskUnits="userSpaceOnUse" x="0" y="0" width="81" height="47">
<g id="svg1248822778_8729_clip1_14_206">
<path id="Vector" d="M80.4902 0.818359H0.490234V46.8184H80.4902V0.818359Z" fill="white" style="fill:white;fill-opacity:1;"/>
</g>
</mask>
<g mask="url(#mask0_23_14175)">
<g id="Group">
<g id="Mask group">
<mask id="mask1_23_14175" style="mask-type:luminance" maskUnits="userSpaceOnUse" x="0" y="0" width="81" height="47">
<g id="Group_2">
<path id="Vector_2" d="M80.49 0.818359H0.490234V46.8184H80.49V0.818359Z" fill="white" style="fill:white;fill-opacity:1;"/>
</g>
</mask>
<g mask="url(#mask1_23_14175)">
<g id="Group_3">
<path id="Vector_3" d="M71.136 0.818359H9.84404C4.67814 0.818359 0.490234 5.00626 0.490234 10.1723V37.4644C0.490234 42.6305 4.67814 46.8184 9.84404 46.8184H71.136C76.302 46.8184 80.49 42.6305 80.49 37.4644V10.1723C80.49 5.00626 76.302 0.818359 71.136 0.818359Z" fill="#F0F0F0" style="fill:#F0F0F0;fill:color(display-p3 0.9412 0.9412 0.9412);fill-opacity:1;"/>
<path id="Vector_4" d="M21.008 21.8483C21.008 21.35 21.411 21.1583 22.079 21.1583C23.036 21.1583 24.245 21.4522 25.202 21.9761V18.9733C24.156 18.5516 23.124 18.3855 22.079 18.3855C19.522 18.3855 17.822 19.74 17.822 22.0016C17.822 25.5283 22.607 24.9661 22.607 26.4866C22.607 27.0744 22.104 27.2661 21.399 27.2661C20.353 27.2661 19.019 26.8316 17.961 26.2439V29.285C19.132 29.7961 20.316 30.0133 21.399 30.0133C24.018 30.0133 25.819 28.6972 25.819 26.41C25.806 22.6022 21.008 23.2794 21.008 21.8483ZM29.521 15.83L26.448 16.4944L26.436 26.7294C26.436 28.6205 27.833 30.0133 29.697 30.0133C30.73 30.0133 31.485 29.8216 31.901 29.5916V26.9977C31.498 27.1639 29.508 27.7516 29.508 25.8605V21.3244H31.901V18.6027H29.508L29.521 15.83ZM35.817 19.5483L35.616 18.6027H32.896V29.7833H36.044V22.2061C36.787 21.2222 38.046 21.4011 38.436 21.5416V18.6027C38.033 18.4494 36.56 18.1683 35.817 19.5483ZM39.205 18.6027H42.365V29.7833H39.205V18.6027ZM39.205 17.6316L42.365 16.9416V14.3477L39.205 15.025V17.6316ZM48.939 18.3855C47.705 18.3855 46.911 18.9733 46.47 19.3822L46.307 18.59H43.536V33.4889L46.685 32.8116L46.697 29.1955C47.15 29.5277 47.818 30.0005 48.926 30.0005C51.18 30.0005 53.233 28.1605 53.233 24.11C53.22 20.4044 51.142 18.3855 48.939 18.3855ZM48.183 27.1894C47.44 27.1894 46.999 26.9211 46.697 26.5889L46.685 21.8483C47.012 21.4777 47.465 21.2222 48.183 21.2222C49.329 21.2222 50.122 22.5255 50.122 24.1994C50.122 25.9116 49.342 27.1894 48.183 27.1894ZM63.156 24.2377C63.156 20.9666 61.594 18.3855 58.61 18.3855C55.613 18.3855 53.799 20.9666 53.799 24.2122C53.799 28.0583 55.94 30.0005 59.013 30.0005C60.511 30.0005 61.645 29.6555 62.501 29.17V26.6144C61.645 27.0489 60.662 27.3172 59.416 27.3172C58.194 27.3172 57.111 26.8827 56.973 25.375H63.13C63.13 25.2089 63.156 24.5444 63.156 24.2377ZM56.935 23.0239C56.935 21.58 57.804 20.9794 58.597 20.9794C59.365 20.9794 60.184 21.58 60.184 23.0239H56.935Z" fill="#393939" style="fill:#393939;fill:color(display-p3 0.2235 0.2235 0.2235);fill-opacity:1;"/>
</g>
</g>
</g>
</g>
</g>
</g>
</svg>
