<svg width="41" height="40" viewBox="0 0 41 40" fill="none" xmlns="http://www.w3.org/2000/svg">
<g id="3">
<rect id="BG" x="0.796143" width="39.398" height="39.398" rx="19.699" fill="#9A5CF5" style="fill:#9A5CF5;fill:color(display-p3 0.6039 0.3608 0.9608);fill-opacity:1;"/>
<g id="telegram 1">
<g id="Group">
<path id="Vector" d="M29.6832 11.9183C29.6675 11.8463 29.633 11.7797 29.5832 11.7254C29.5334 11.6711 29.47 11.631 29.3997 11.6092C29.1435 11.5587 28.8785 11.5776 28.6321 11.6641C28.6321 11.6641 11.5394 17.8075 10.5634 18.4879C10.3524 18.6342 10.2823 18.7189 10.2476 18.8195C10.0787 19.3036 10.6042 19.5169 10.6042 19.5169L15.0095 20.9527C15.0839 20.9655 15.1603 20.9609 15.2327 20.9393C16.2349 20.3064 25.3156 14.5721 25.8405 14.3794C25.9228 14.3544 25.9838 14.3794 25.9704 14.4404C25.7558 15.1756 17.9139 22.1445 17.8706 22.1872C17.8496 22.2045 17.833 22.2266 17.8224 22.2516C17.8118 22.2767 17.8074 22.304 17.8096 22.3311L17.4 26.6297C17.4 26.6297 17.228 27.9709 18.5668 26.6297C19.516 25.6793 20.4269 24.8928 20.8835 24.5106C22.3985 25.5561 24.0287 26.7126 24.7316 27.315C24.8495 27.4295 24.9893 27.5191 25.1427 27.5784C25.2961 27.6377 25.4598 27.6655 25.6241 27.66C26.2947 27.6344 26.4776 26.901 26.4776 26.901C26.4776 26.901 29.5917 14.3697 29.6966 12.6901C29.7063 12.5255 29.7203 12.42 29.7216 12.3072C29.7271 12.1764 29.7142 12.0455 29.6832 11.9183Z" fill="white" style="fill:white;fill-opacity:1;"/>
</g>
</g>
</g>
</svg>
