<svg width="32" height="32" viewBox="0 0 32 32" fill="none" xmlns="http://www.w3.org/2000/svg">
<g id="1">
<circle id="BG" cx="16" cy="16" r="16" fill="#809D79" style="fill:#9A5CF5;fill:color(display-p3 0.6039 0.3608 0.9608);fill-opacity:1;"/>
<g id="logo-twitter 2">
<g id="Group">
<path id="Vector" d="M23.0939 12.5517C22.615 12.7645 22.1096 12.8976 21.5775 12.9774C22.1096 12.6581 22.5352 12.1526 22.7215 11.5407C22.216 11.8334 21.6573 12.0462 21.0454 12.1792C20.5665 11.6737 19.8748 11.3545 19.1298 11.3545C17.6932 11.3545 16.5226 12.5251 16.5226 13.9617C16.5226 14.1746 16.5492 14.3608 16.6024 14.547C14.4474 14.4406 12.5053 13.403 11.2017 11.8068C10.9888 12.2058 10.8558 12.6315 10.8558 13.1104C10.8558 14.015 11.3081 14.8131 12.0264 15.292C11.6008 15.2654 11.2017 15.1589 10.8292 14.9727V14.9993C10.8292 16.2763 11.7338 17.3405 12.931 17.58C12.7181 17.6332 12.4787 17.6598 12.2393 17.6598C12.0796 17.6598 11.8934 17.6332 11.7338 17.6066C12.0796 18.6441 13.0374 19.4157 14.1814 19.4157C13.2768 20.1074 12.1594 20.5331 10.9356 20.5331C10.7228 20.5331 10.51 20.5331 10.3237 20.5065C11.4943 21.2514 12.8512 21.6771 14.341 21.6771C19.1565 21.6771 21.7903 17.6864 21.7903 14.2278C21.7903 14.1214 21.7903 13.9883 21.7903 13.8819C22.2958 13.5361 22.7481 13.0838 23.0939 12.5517Z" fill="white" style="fill:white;fill-opacity:1;"/>
</g>
</g>
</g>
</svg>
