<svg width="40" height="40" viewBox="0 0 40 40" fill="none" xmlns="http://www.w3.org/2000/svg">
<g id="2">
<rect id="BG" x="0.397949" width="39.398" height="39.398" rx="19.699" fill="#9A5CF5" style="fill:#9A5CF5;fill:color(display-p3 0.6039 0.3608 0.9608);fill-opacity:1;"/>
<g id="logo-twitter 3">
<g id="Group">
<path id="Vector" d="M30.4282 14.518C29.6992 14.8217 28.9703 15.0647 28.1199 15.1254C28.9703 14.6395 29.5777 13.8498 29.8815 12.9386C29.0918 13.4246 28.2414 13.7283 27.3302 13.9105C26.6013 13.1208 25.5686 12.6349 24.4752 12.6349C22.2884 12.6349 20.4661 14.3965 20.4661 16.644C20.4661 16.9477 20.5268 17.2515 20.5876 17.5552C17.2466 17.373 14.3309 15.7936 12.3263 13.3638C11.9619 13.9713 11.7796 14.6395 11.7796 15.3684C11.7796 16.7655 12.5086 17.9804 13.5412 18.7093C12.873 18.7093 12.2656 18.5271 11.7189 18.2234V18.2841C11.7189 20.2279 13.116 21.8073 14.9383 22.1718C14.5739 22.2325 14.2701 22.2933 13.9057 22.2933C13.6627 22.2933 13.4197 22.2933 13.1767 22.2325C13.6627 23.8119 15.1813 24.966 16.8822 25.0268C15.5458 26.1202 13.7842 26.7276 11.9011 26.7276C11.5974 26.7276 11.2329 26.7276 10.9292 26.6669C12.7515 27.7603 14.8776 28.4284 17.1251 28.4284C24.4752 28.4284 28.4843 22.354 28.4843 17.0692C28.4843 16.887 28.4843 16.7048 28.4843 16.5833C29.2133 15.9758 29.8815 15.3076 30.4282 14.518Z" fill="white" style="fill:white;fill-opacity:1;"/>
</g>
</g>
</g>
</svg>
